<?xml version="1.0" encoding="UTF-8"?>
<!DOCTYPE svg PUBLIC "-//W3C//DTD SVG 1.1//EN" "http://www.w3.org/Graphics/SVG/1.1/DTD/svg11.dtd">
<svg xmlns="http://www.w3.org/2000/svg" version="1.1" width="979px" height="296px" style="shape-rendering:geometricPrecision; text-rendering:geometricPrecision; image-rendering:optimizeQuality; fill-rule:evenodd; clip-rule:evenodd" xmlns:xlink="http://www.w3.org/1999/xlink">
<g><path style="opacity:0.101" fill="#010403" d="M 308.5,210.5 C 308.033,215.4 308.699,220.067 310.5,224.5C 308.328,228.837 304.995,232.004 300.5,234C 267.479,242.622 234.146,251.289 200.5,260C 193.125,261.207 186.625,259.374 181,254.5C 178.861,257.27 176.361,259.77 173.5,262C 163.383,265.092 153.216,265.258 143,262.5C 139.984,260.147 136.984,257.813 134,255.5C 127.535,260.599 120.535,261.599 113,258.5C 112.586,258.957 112.086,259.291 111.5,259.5C 80.9151,250.943 49.9151,242.777 18.5,235C 7.6636,231.162 3.83027,223.662 7,212.5C 9,209.833 11,207.167 13,204.5C 14.3487,200.1 15.8487,195.767 17.5,191.5C 21.7247,187.474 26.2247,183.808 31,180.5C 33.0176,177.219 32.8509,174.052 30.5,171C 24.2691,129.729 33.7691,93.2291 59,61.5C 93.007,24.5828 134.84,9.91614 184.5,17.5C 238.688,30.6028 273.021,64.6028 287.5,119.5C 287.291,120.086 286.957,120.586 286.5,121C 288.664,129.143 289.664,137.476 289.5,146C 289.103,157.883 287.936,169.383 286,180.5C 289.406,184.538 293.406,187.871 298,190.5C 299,192.167 300,193.833 301,195.5C 300.884,201.935 303.384,206.935 308.5,210.5 Z"/></g>
<g><path style="opacity:1" fill="#00a55c" d="M 251.5,71.5 C 245.369,71.4414 239.036,71.608 232.5,72C 231.91,73.5095 231.244,75.0095 230.5,76.5C 229.702,76.0431 229.369,75.3764 229.5,74.5C 230.15,72.5648 230.483,70.5648 230.5,68.5C 225.388,68.9813 220.721,70.648 216.5,73.5C 215.849,72.9094 215.182,72.2427 214.5,71.5C 213.264,72.2458 211.93,72.5792 210.5,72.5C 210.819,74.7505 210.319,76.7505 209,78.5C 208.536,77.9056 208.369,77.2389 208.5,76.5C 209.015,68.2116 206.682,60.8783 201.5,54.5C 193.639,61.5348 190.306,70.2015 191.5,80.5C 190.883,80.6107 190.383,80.944 190,81.5C 188.349,75.7406 186.849,70.074 185.5,64.5C 183.287,59.9476 180.287,55.9476 176.5,52.5C 173.953,55.9909 172.62,59.9909 172.5,64.5C 171.691,66.2922 171.191,68.2922 171,70.5C 170.68,66.7858 170.18,63.1191 169.5,59.5C 170.283,55.8542 170.45,52.1875 170,48.5C 168.056,44.8901 165.723,41.5568 163,38.5C 157.236,46.1041 157.069,53.7708 162.5,61.5C 161.226,62.1894 161.226,63.0228 162.5,64C 161.833,64.3333 161.167,64.6667 160.5,65C 161.84,67.1785 161.507,67.6785 159.5,66.5C 153.062,54.4504 143.062,50.1171 129.5,53.5C 132.089,62.7474 137.756,69.0808 146.5,72.5C 150.298,73.4834 154.298,73.8168 158.5,73.5C 159.263,74.2679 160.263,74.7679 161.5,75C 160.263,75.2321 159.263,75.7321 158.5,76.5C 155.123,76.9595 151.789,77.6261 148.5,78.5C 147.262,78.19 147.262,77.69 148.5,77C 149.5,76.6667 150.5,76.3333 151.5,76C 143.637,74.3784 135.804,74.2117 128,75.5C 127.722,74.5842 127.222,73.9175 126.5,73.5C 124.707,62.4774 118.373,56.8108 107.5,56.5C 108.352,60.1309 109.019,63.7976 109.5,67.5C 109.694,70.3297 110.361,72.9963 111.5,75.5C 109.473,75.3379 107.473,75.5045 105.5,76C 106.885,77.9645 106.718,79.7979 105,81.5C 104.802,79.6183 104.302,77.9516 103.5,76.5C 102.16,71.2966 99.6597,66.63 96,62.5C 93.342,66.1476 91.5086,70.1476 90.5,74.5C 89.6909,76.2922 89.1909,78.2922 89,80.5C 87.8118,79.4366 87.3118,78.1033 87.5,76.5C 80.4921,76.6663 73.4921,76.4996 66.5,76C 65.7476,75.3292 65.4142,74.4959 65.5,73.5C 97.9331,33.9652 139.266,19.7985 189.5,31C 214.754,37.7738 235.42,51.2738 251.5,71.5 Z"/></g>
<g><path style="opacity:0.236" fill="#020a05" d="M 169.5,59.5 C 168.778,59.9175 168.278,60.5842 168,61.5C 167.9,56.4271 166.567,51.7604 164,47.5C 163.223,52.222 163.39,56.8887 164.5,61.5C 164.03,62.463 163.363,62.463 162.5,61.5C 157.069,53.7708 157.236,46.1041 163,38.5C 165.723,41.5568 168.056,44.8901 170,48.5C 170.45,52.1875 170.283,55.8542 169.5,59.5 Z"/></g>
<g><path style="opacity:0.196" fill="#010804" d="M 159.5,66.5 C 159.565,66.9382 159.399,67.2716 159,67.5C 153.076,63.1159 146.576,60.2825 139.5,59C 142.983,62.2392 146.65,65.2392 150.5,68C 152.577,69.705 154.91,70.8717 157.5,71.5C 154.038,72.4816 150.371,72.815 146.5,72.5C 137.756,69.0808 132.089,62.7474 129.5,53.5C 143.062,50.1171 153.062,54.4504 159.5,66.5 Z"/></g>
<g><path style="opacity:0.219" fill="#010904" d="M 185.5,64.5 C 185.656,68.5817 185.156,72.5817 184,76.5C 182.791,71.7071 181.291,67.0405 179.5,62.5C 179.44,61.9569 179.107,61.6236 178.5,61.5C 177.197,64.6447 177.197,67.6447 178.5,70.5C 178.935,73.596 179.435,76.596 180,79.5C 174.819,75.8053 172.319,70.8053 172.5,64.5C 172.62,59.9909 173.953,55.9909 176.5,52.5C 180.287,55.9476 183.287,59.9476 185.5,64.5 Z"/></g>
<g><path style="opacity:0.201" fill="#010a05" d="M 208.5,76.5 C 206.879,79.7415 205.213,83.0748 203.5,86.5C 202.833,87.8333 202.167,87.8333 201.5,86.5C 202.957,79.7741 202.79,73.1074 201,66.5C 199.015,70.9136 197.848,75.5802 197.5,80.5C 196.833,83.1667 196.167,85.8333 195.5,88.5C 194.134,85.768 192.801,83.1013 191.5,80.5C 190.306,70.2015 193.639,61.5348 201.5,54.5C 206.682,60.8783 209.015,68.2116 208.5,76.5 Z"/></g>
<g><path style="opacity:0.236" fill="#020a05" d="M 126.5,73.5 C 122.865,70.2321 118.865,66.5654 114.5,62.5C 115.972,67.8789 118.972,72.7123 123.5,77C 116.818,76.8207 112.152,73.654 109.5,67.5C 109.019,63.7976 108.352,60.1309 107.5,56.5C 118.373,56.8108 124.707,62.4774 126.5,73.5 Z"/></g>
<g><path style="opacity:0.24" fill="#020c06" d="M 103.5,76.5 C 103.732,80.4575 102.899,84.1242 101,87.5C 101.038,82.1249 99.7043,77.1249 97,72.5C 96.6175,78.3392 96.4508,84.0058 96.5,89.5C 92.0004,85.5007 90.0004,80.5007 90.5,74.5C 91.5086,70.1476 93.342,66.1476 96,62.5C 99.6597,66.63 102.16,71.2966 103.5,76.5 Z"/></g>
<g><path style="opacity:0.435" fill="#00502f" d="M 179.5,62.5 C 178.527,64.9479 178.194,67.6146 178.5,70.5C 177.197,67.6447 177.197,64.6447 178.5,61.5C 179.107,61.6236 179.44,61.9569 179.5,62.5 Z"/></g>
<g><path style="opacity:0.235" fill="#04110a" d="M 229.5,74.5 C 227.613,80.8899 223.446,85.2232 217,87.5C 216.333,86.8333 216.333,86.1667 217,85.5C 220.102,82.7877 222.602,79.621 224.5,76C 219.584,77.558 215.751,80.7246 213,85.5C 212.133,80.9017 213.3,76.9017 216.5,73.5C 220.721,70.648 225.388,68.9813 230.5,68.5C 230.483,70.5648 230.15,72.5648 229.5,74.5 Z"/></g>
<g><path style="opacity:1" fill="#009f5f" d="M 169.5,59.5 C 170.18,63.1191 170.68,66.7858 171,70.5C 171.191,68.2922 171.691,66.2922 172.5,64.5C 172.319,70.8053 174.819,75.8053 180,79.5C 179.435,76.596 178.935,73.596 178.5,70.5C 178.194,67.6146 178.527,64.9479 179.5,62.5C 181.291,67.0405 182.791,71.7071 184,76.5C 185.156,72.5817 185.656,68.5817 185.5,64.5C 186.849,70.074 188.349,75.7406 190,81.5C 190.383,80.944 190.883,80.6107 191.5,80.5C 192.801,83.1013 194.134,85.768 195.5,88.5C 195.56,89.0431 195.893,89.3764 196.5,89.5C 197.484,86.5719 197.817,83.5719 197.5,80.5C 197.848,75.5802 199.015,70.9136 201,66.5C 202.79,73.1074 202.957,79.7741 201.5,86.5C 202.167,87.8333 202.833,87.8333 203.5,86.5C 205.213,83.0748 206.879,79.7415 208.5,76.5C 208.369,77.2389 208.536,77.9056 209,78.5C 210.319,76.7505 210.819,74.7505 210.5,72.5C 211.93,72.5792 213.264,72.2458 214.5,71.5C 215.182,72.2427 215.849,72.9094 216.5,73.5C 213.3,76.9017 212.133,80.9017 213,85.5C 215.751,80.7246 219.584,77.558 224.5,76C 222.602,79.621 220.102,82.7877 217,85.5C 216.333,86.1667 216.333,86.8333 217,87.5C 223.446,85.2232 227.613,80.8899 229.5,74.5C 229.369,75.3764 229.702,76.0431 230.5,76.5C 231.244,75.0095 231.91,73.5095 232.5,72C 239.036,71.608 245.369,71.4414 251.5,71.5C 259.277,80.7107 265.277,91.044 269.5,102.5C 258.316,102.298 247.149,102.632 236,103.5C 234.167,103.333 232.333,103.167 230.5,103C 229.748,102.329 229.414,101.496 229.5,100.5C 230.465,96.2274 231.131,91.8941 231.5,87.5C 224.939,88.6128 218.939,91.1128 213.5,95C 208.391,99.6771 206.057,105.51 206.5,112.5C 205.527,110.052 205.194,107.385 205.5,104.5C 202.941,104.198 200.607,104.532 198.5,105.5C 189.047,90.4438 175.713,80.7771 158.5,76.5C 159.263,75.7321 160.263,75.2321 161.5,75C 160.263,74.7679 159.263,74.2679 158.5,73.5C 158.672,72.5084 158.338,71.8417 157.5,71.5C 154.91,70.8717 152.577,69.705 150.5,68C 146.65,65.2392 142.983,62.2392 139.5,59C 146.576,60.2825 153.076,63.1159 159,67.5C 159.399,67.2716 159.565,66.9382 159.5,66.5C 161.507,67.6785 161.84,67.1785 160.5,65C 161.167,64.6667 161.833,64.3333 162.5,64C 161.226,63.0228 161.226,62.1894 162.5,61.5C 163.363,62.463 164.03,62.463 164.5,61.5C 163.39,56.8887 163.223,52.222 164,47.5C 166.567,51.7604 167.9,56.4271 168,61.5C 168.278,60.5842 168.778,59.9175 169.5,59.5 Z"/></g>
<g><path style="opacity:0.494" fill="#003f27" d="M 157.5,71.5 C 158.338,71.8417 158.672,72.5084 158.5,73.5C 154.298,73.8168 150.298,73.4834 146.5,72.5C 150.371,72.815 154.038,72.4816 157.5,71.5 Z"/></g>
<g><path style="opacity:1" fill="#239c6e" d="M 822.5,75.5 C 831.167,98.1667 839.833,120.833 848.5,143.5C 843.968,143.182 839.634,143.515 835.5,144.5C 834.5,144.5 833.5,144.5 832.5,144.5C 832.5,143.167 832.5,141.833 832.5,140.5C 831.766,139.292 831.433,137.959 831.5,136.5C 823.5,136.5 815.5,136.5 807.5,136.5C 807.414,138.677 806.747,140.677 805.5,142.5C 801.687,143.167 798.021,143.834 794.5,144.5C 792.473,144.662 790.473,144.495 788.5,144C 798.365,120.071 808.365,96.0714 818.5,72C 818.833,71.8333 819.167,71.6667 819.5,71.5C 820.521,72.9014 821.521,74.2347 822.5,75.5 Z M 822.5,115.5 C 823.162,117.47 823.828,119.47 824.5,121.5C 822.955,122.452 821.288,122.785 819.5,122.5C 820.323,120.013 821.323,117.679 822.5,115.5 Z"/></g>
<g><path style="opacity:1" fill="#239c6e" d="M 546.5,76.5 C 555.081,98.8305 564.081,120.997 573.5,143C 568.981,143.175 564.647,143.675 560.5,144.5C 557.858,144.512 556.525,143.179 556.5,140.5C 555.766,139.292 555.433,137.959 555.5,136.5C 547.826,136.334 540.159,136.5 532.5,137C 531.308,138.912 530.308,140.912 529.5,143C 525.748,143.24 522.081,143.74 518.5,144.5C 516.833,144.5 515.167,144.5 513.5,144.5C 522.905,120.451 532.405,96.4512 542,72.5C 543.011,71.6634 544.178,71.33 545.5,71.5C 545.366,73.2915 545.699,74.9582 546.5,76.5 Z M 546.5,116.5 C 547.738,118.214 548.405,120.214 548.5,122.5C 546.833,122.5 545.167,122.5 543.5,122.5C 544.514,120.426 545.514,118.426 546.5,116.5 Z"/></g>
<g><path style="opacity:1" fill="#009f60" d="M 126.5,73.5 C 127.222,73.9175 127.722,74.5842 128,75.5C 135.804,74.2117 143.637,74.3784 151.5,76C 150.5,76.3333 149.5,76.6667 148.5,77C 147.262,77.69 147.262,78.19 148.5,78.5C 146.192,79.5578 143.858,80.7245 141.5,82C 147.662,89.911 155.662,94.411 165.5,95.5C 169.739,95.2172 173.739,94.0505 177.5,92C 175.844,90.1706 173.844,88.8372 171.5,88C 165.638,87.1943 159.971,85.8609 154.5,84C 163.063,82.4303 171.063,83.7636 178.5,88C 183.079,92.0738 187.079,96.5738 190.5,101.5C 189.226,102.189 189.226,103.023 190.5,104C 189.833,104.333 189.167,104.667 188.5,105C 178.787,105.217 169.12,105.717 159.5,106.5C 159.039,104.45 158.372,102.45 157.5,100.5C 156.998,99.479 156.332,99.3123 155.5,100C 150.789,103.935 147.456,108.768 145.5,114.5C 144.683,116.969 144.183,119.635 144,122.5C 143.825,118.058 143.658,113.724 143.5,109.5C 143.854,105.363 143.354,101.363 142,97.5C 138.73,93.2748 134.897,89.6081 130.5,86.5C 129.027,92.1928 128.694,97.8595 129.5,103.5C 128.596,104.209 128.263,105.209 128.5,106.5C 122.274,106.388 116.274,107.054 110.5,108.5C 108.6,110.619 106.934,112.953 105.5,115.5C 99.8469,114.22 94.1802,114.22 88.5,115.5C 88.6653,119.182 88.4986,122.848 88,126.5C 87.8138,123.964 87.3138,121.631 86.5,119.5C 86.424,115.771 85.2574,112.438 83,109.5C 78.6667,105.833 74.3333,102.167 70,98.5C 68.9563,99.6226 68.2896,100.956 68,102.5C 67.2124,108.582 67.379,114.582 68.5,120.5C 68.631,121.239 68.4643,121.906 68,122.5C 66.0972,120.559 65.2639,118.226 65.5,115.5C 59.5036,116.134 53.5036,116.3 47.5,116C 46.0267,115.29 45.3601,114.124 45.5,112.5C 49.2955,97.9065 55.9622,84.9065 65.5,73.5C 65.4142,74.4959 65.7476,75.3292 66.5,76C 73.4921,76.4996 80.4921,76.6663 87.5,76.5C 87.3118,78.1033 87.8118,79.4366 89,80.5C 89.1909,78.2922 89.6909,76.2922 90.5,74.5C 90.0004,80.5007 92.0004,85.5007 96.5,89.5C 96.4508,84.0058 96.6175,78.3392 97,72.5C 99.7043,77.1249 101.038,82.1249 101,87.5C 102.899,84.1242 103.732,80.4575 103.5,76.5C 104.302,77.9516 104.802,79.6183 105,81.5C 106.718,79.7979 106.885,77.9645 105.5,76C 107.473,75.5045 109.473,75.3379 111.5,75.5C 110.361,72.9963 109.694,70.3297 109.5,67.5C 112.152,73.654 116.818,76.8207 123.5,77C 118.972,72.7123 115.972,67.8789 114.5,62.5C 118.865,66.5654 122.865,70.2321 126.5,73.5 Z"/></g>
<g><path style="opacity:1" fill="#269c6f" d="M 450.5,79.5 C 449.756,83.1185 449.423,86.7852 449.5,90.5C 446.432,89.9782 443.432,89.1449 440.5,88C 431.684,85.4959 427.851,88.6625 429,97.5C 430.039,98.7101 431.206,99.7101 432.5,100.5C 441.022,102.584 448.022,106.917 453.5,113.5C 458.435,136.407 449.101,146.574 425.5,144C 422.708,143.458 420.042,142.624 417.5,141.5C 415.883,140.962 414.216,140.629 412.5,140.5C 412.051,134.824 413.051,129.491 415.5,124.5C 421.896,128.682 428.896,130.182 436.5,129C 439.941,127.682 441.275,125.182 440.5,121.5C 440.092,120.357 439.425,119.357 438.5,118.5C 433.807,116.485 429.141,114.485 424.5,112.5C 412.904,104.782 410.404,94.7822 417,82.5C 423.361,74.7121 431.527,71.8788 441.5,74C 445.095,74.561 448.428,75.7276 451.5,77.5C 451.137,78.1835 450.804,78.8501 450.5,79.5 Z"/></g>
<g><path style="opacity:0.933" fill="#59b492" d="M 510.5,78.5 C 510.167,78.5 509.833,78.5 509.5,78.5C 509.5,77.5 509.5,76.5 509.5,75.5C 493.5,75.5 477.5,75.5 461.5,75.5C 461.5,79.8333 461.5,84.1667 461.5,88.5C 460.514,84.03 460.181,79.3633 460.5,74.5C 477.167,74.5 493.833,74.5 510.5,74.5C 510.5,75.8333 510.5,77.1667 510.5,78.5 Z"/></g>
<g><path style="opacity:0.031" fill="#8ccbb4" d="M 737.5,74.5 C 737.5,97.5 737.5,120.5 737.5,143.5C 738.833,143.5 740.167,143.5 741.5,143.5C 741.5,143.833 741.5,144.167 741.5,144.5C 739.833,144.5 738.167,144.5 736.5,144.5C 736.169,120.994 736.502,97.6607 737.5,74.5 Z"/></g>
<g><path style="opacity:1" fill="#1e9a6c" d="M 509.5,78.5 C 509.5,81.8333 509.5,85.1667 509.5,88.5C 503.833,88.5 498.167,88.5 492.5,88.5C 492.5,106.833 492.5,125.167 492.5,143.5C 488.958,143.187 485.625,143.521 482.5,144.5C 481.167,144.5 479.833,144.5 478.5,144.5C 478.5,127.5 478.5,110.5 478.5,93.5C 478.5,91.8333 478.5,90.1667 478.5,88.5C 473.968,88.1818 469.634,88.5151 465.5,89.5C 463.901,89.7678 462.568,89.4345 461.5,88.5C 461.5,84.1667 461.5,79.8333 461.5,75.5C 477.5,75.5 493.5,75.5 509.5,75.5C 509.5,76.5 509.5,77.5 509.5,78.5 Z"/></g>
<g><path style="opacity:0.655" fill="#70c0a2" d="M 583.5,74.5 C 583.5,97.5 583.5,120.5 583.5,143.5C 584.5,143.5 585.5,143.5 586.5,143.5C 586.5,143.833 586.5,144.167 586.5,144.5C 585.167,144.5 583.833,144.5 582.5,144.5C 582.169,120.994 582.502,97.6607 583.5,74.5 Z"/></g>
<g><path style="opacity:1" fill="#209b6c" d="M 583.5,74.5 C 594.505,74.3335 605.505,74.5002 616.5,75C 621.395,76.425 625.061,79.2584 627.5,83.5C 631.609,91.8824 631.442,100.216 627,108.5C 624.53,111.807 621.363,114.14 617.5,115.5C 622.246,124.661 627.246,133.661 632.5,142.5C 628.018,143.167 623.684,143.834 619.5,144.5C 618.325,144.719 617.325,144.386 616.5,143.5C 612.791,136.082 609.125,128.749 605.5,121.5C 603.779,117.826 600.779,116.493 596.5,117.5C 596.5,126.167 596.5,134.833 596.5,143.5C 593.167,143.5 589.833,143.5 586.5,143.5C 585.5,143.5 584.5,143.5 583.5,143.5C 583.5,120.5 583.5,97.5 583.5,74.5 Z M 615.5,93.5 C 615.896,96.4822 615.229,99.1489 613.5,101.5C 609.722,103.255 605.722,103.922 601.5,103.5C 601.5,100.167 601.5,96.8333 601.5,93.5C 606.167,93.5 610.833,93.5 615.5,93.5 Z"/></g>
<g><path style="opacity:1" fill="#209b6c" d="M 719.5,88.5 C 726.854,103.655 726.02,118.321 717,132.5C 712.345,137.913 706.512,141.413 699.5,143C 690.657,143.17 681.99,143.67 673.5,144.5C 672.167,144.5 670.833,144.5 669.5,144.5C 669.5,121.167 669.5,97.8333 669.5,74.5C 679.506,74.3335 689.506,74.5002 699.5,75C 708.105,76.7905 714.772,81.2905 719.5,88.5 Z M 704.5,95.5 C 706.316,97.1184 707.649,99.1184 708.5,101.5C 709.833,106.833 709.833,112.167 708.5,117.5C 704.119,125.863 697.119,129.863 687.5,129.5C 687.5,117.5 687.5,105.5 687.5,93.5C 693.323,93.123 698.989,93.7897 704.5,95.5 Z"/></g>
<g><path style="opacity:1" fill="#1f9b6c" d="M 737.5,74.5 C 748.838,74.3335 760.172,74.5001 771.5,75C 774.071,75.9009 776.404,77.2342 778.5,79C 780.141,80.129 781.141,81.629 781.5,83.5C 785.613,92.2146 785.447,100.881 781,109.5C 778.072,113.381 774.239,115.881 769.5,117C 763.509,117.499 757.509,117.666 751.5,117.5C 751.5,126.167 751.5,134.833 751.5,143.5C 748.167,143.5 744.833,143.5 741.5,143.5C 740.167,143.5 738.833,143.5 737.5,143.5C 737.5,120.5 737.5,97.5 737.5,74.5 Z M 769.5,93.5 C 769.98,96.6852 769.314,99.5185 767.5,102C 763.637,103.354 759.637,103.854 755.5,103.5C 755.5,100.167 755.5,96.8333 755.5,93.5C 760.167,93.5 764.833,93.5 769.5,93.5 Z"/></g>
<g><path style="opacity:0.659" fill="#1a694a" d="M 509.5,78.5 C 509.833,78.5 510.167,78.5 510.5,78.5C 511.833,78.5 513.167,78.5 514.5,78.5C 514.5,83.5 514.5,88.5 514.5,93.5C 508.5,93.5 502.5,93.5 496.5,93.5C 496.5,111.833 496.5,130.167 496.5,148.5C 491.833,148.5 487.167,148.5 482.5,148.5C 482.5,147.167 482.5,145.833 482.5,144.5C 485.625,143.521 488.958,143.187 492.5,143.5C 492.5,125.167 492.5,106.833 492.5,88.5C 498.167,88.5 503.833,88.5 509.5,88.5C 509.5,85.1667 509.5,81.8333 509.5,78.5 Z"/></g>
<g><path style="opacity:0.254" fill="#010b06" d="M 117.5,85.5 C 118.5,85.5 119.5,85.5 120.5,85.5C 121.363,94.1143 117.863,100.114 110,103.5C 111.586,99.6879 113.752,96.0212 116.5,92.5C 115.998,91.479 115.332,91.3123 114.5,92C 111.296,94.8688 108.463,98.0354 106,101.5C 104.864,97.1044 106.031,93.4377 109.5,90.5C 112.231,88.8084 114.898,87.1417 117.5,85.5 Z"/></g>
<g><path style="opacity:0.23" fill="#030f09" d="M 143.5,109.5 C 133.425,91.5441 132.092,92.3775 139.5,112C 134.834,110.842 131.501,108.008 129.5,103.5C 128.694,97.8595 129.027,92.1928 130.5,86.5C 134.897,89.6081 138.73,93.2748 142,97.5C 143.354,101.363 143.854,105.363 143.5,109.5 Z"/></g>
<g><path style="opacity:0.673" fill="#005836" d="M 197.5,80.5 C 197.817,83.5719 197.484,86.5719 196.5,89.5C 195.893,89.3764 195.56,89.0431 195.5,88.5C 196.167,85.8333 196.833,83.1667 197.5,80.5 Z"/></g>
<g><path style="opacity:0.197" fill="#030c07" d="M 229.5,100.5 C 226.716,108.974 221.049,113.64 212.5,114.5C 217.567,109.642 221.067,103.976 223,97.5C 216.98,102.02 211.813,107.353 207.5,113.5C 206.893,113.376 206.56,113.043 206.5,112.5C 206.057,105.51 208.391,99.6771 213.5,95C 218.939,91.1128 224.939,88.6128 231.5,87.5C 231.131,91.8941 230.465,96.2274 229.5,100.5 Z"/></g>
<g><path style="opacity:0.658" fill="#1a684a" d="M 450.5,79.5 C 452.117,80.038 453.784,80.3713 455.5,80.5C 455.059,85.5861 454.226,90.5861 453,95.5C 446.747,92.2086 440.414,91.8752 434,94.5C 433.187,96.4357 432.687,98.4357 432.5,100.5C 431.206,99.7101 430.039,98.7101 429,97.5C 427.851,88.6625 431.684,85.4959 440.5,88C 443.432,89.1449 446.432,89.9782 449.5,90.5C 449.423,86.7852 449.756,83.1185 450.5,79.5 Z"/></g>
<g><path style="opacity:0.58" fill="#186648" d="M 615.5,93.5 C 610.833,93.5 606.167,93.5 601.5,93.5C 601.5,96.8333 601.5,100.167 601.5,103.5C 600.167,103.5 598.833,103.5 597.5,103.5C 597.5,98.5 597.5,93.5 597.5,88.5C 601.846,88.3343 606.179,88.501 610.5,89C 612.986,89.6556 614.653,91.1556 615.5,93.5 Z"/></g>
<g><path style="opacity:0.65" fill="#1a674a" d="M 627.5,83.5 C 630.484,84.987 632.651,87.3203 634,90.5C 638.061,103.622 634.228,113.622 622.5,120.5C 627.311,129.591 632.311,138.591 637.5,147.5C 631.872,148.495 626.206,148.829 620.5,148.5C 620.567,147.041 620.234,145.708 619.5,144.5C 623.684,143.834 628.018,143.167 632.5,142.5C 627.246,133.661 622.246,124.661 617.5,115.5C 621.363,114.14 624.53,111.807 627,108.5C 631.442,100.216 631.609,91.8824 627.5,83.5 Z"/></g>
<g><path style="opacity:0.653" fill="#1a684a" d="M 781.5,83.5 C 783.017,83.5106 784.184,84.1772 785,85.5C 791,95.1667 791,104.833 785,114.5C 782.736,117.433 779.902,119.6 776.5,121C 769.555,122.23 762.555,122.73 755.5,122.5C 755.5,131.167 755.5,139.833 755.5,148.5C 750.833,148.5 746.167,148.5 741.5,148.5C 741.5,147.167 741.5,145.833 741.5,144.5C 741.5,144.167 741.5,143.833 741.5,143.5C 744.833,143.5 748.167,143.5 751.5,143.5C 751.5,134.833 751.5,126.167 751.5,117.5C 757.509,117.666 763.509,117.499 769.5,117C 774.239,115.881 778.072,113.381 781,109.5C 785.447,100.881 785.613,92.2146 781.5,83.5 Z"/></g>
<g><path style="opacity:0.671" fill="#1a6749" d="M 478.5,93.5 C 474.167,93.5 469.833,93.5 465.5,93.5C 465.5,92.1667 465.5,90.8333 465.5,89.5C 469.634,88.5151 473.968,88.1818 478.5,88.5C 478.5,90.1667 478.5,91.8333 478.5,93.5 Z"/></g>
<g><path style="opacity:0.656" fill="#186749" d="M 704.5,95.5 C 698.989,93.7897 693.323,93.123 687.5,93.5C 687.5,105.5 687.5,117.5 687.5,129.5C 686.167,129.5 684.833,129.5 683.5,129.5C 683.5,115.833 683.5,102.167 683.5,88.5C 692.046,86.759 699.046,89.0923 704.5,95.5 Z"/></g>
<g><path style="opacity:0.661" fill="#196749" d="M 769.5,93.5 C 764.833,93.5 760.167,93.5 755.5,93.5C 755.5,96.8333 755.5,100.167 755.5,103.5C 754.167,103.5 752.833,103.5 751.5,103.5C 751.5,98.5 751.5,93.5 751.5,88.5C 756.179,88.3342 760.845,88.5008 765.5,89C 767.751,89.7475 769.084,91.2475 769.5,93.5 Z"/></g>
<g><path style="opacity:0.249" fill="#020d08" d="M 83.5,90.5 C 90.3622,92.4917 94.8622,96.8251 97,103.5C 97.6667,104.833 97.6667,106.167 97,107.5C 94.8682,103.569 92.0348,100.236 88.5,97.5C 89.1599,101.645 91.1599,105.478 94.5,109C 88.6858,109.161 85.1858,106.328 84,100.5C 83.5017,97.1832 83.335,93.8499 83.5,90.5 Z"/></g>
<g><path style="opacity:0.2" fill="#020c07" d="M 86.5,119.5 C 86.8174,122.572 86.4841,125.572 85.5,128.5C 83.0333,121.564 79.5333,115.231 75,109.5C 75.5286,117.092 77.6952,124.258 81.5,131C 75.5641,129.572 71.2307,126.072 68.5,120.5C 67.379,114.582 67.2124,108.582 68,102.5C 68.2896,100.956 68.9563,99.6226 70,98.5C 74.3333,102.167 78.6667,105.833 83,109.5C 85.2574,112.438 86.424,115.771 86.5,119.5 Z"/></g>
<g><path style="opacity:0.657" fill="#1a674a" d="M 719.5,88.5 C 726.303,95.3133 729.636,103.647 729.5,113.5C 728.942,130.152 720.942,141.319 705.5,147C 694.889,148.375 684.222,148.875 673.5,148.5C 673.5,147.167 673.5,145.833 673.5,144.5C 681.99,143.67 690.657,143.17 699.5,143C 706.512,141.413 712.345,137.913 717,132.5C 726.02,118.321 726.854,103.655 719.5,88.5 Z"/></g>
<g><path style="opacity:0.648" fill="#1a6749" d="M 822.5,75.5 C 823.5,75.5 824.5,75.5 825.5,75.5C 834.702,100.054 844.035,124.388 853.5,148.5C 848.125,148.828 842.792,148.495 837.5,147.5C 837.058,146.261 836.391,145.261 835.5,144.5C 839.634,143.515 843.968,143.182 848.5,143.5C 839.833,120.833 831.167,98.1667 822.5,75.5 Z"/></g>
<g><path style="opacity:0.6" fill="#76c2a6" d="M 708.5,101.5 C 710.033,103.634 710.7,106.134 710.5,109C 710.64,112.15 709.973,114.983 708.5,117.5C 709.833,112.167 709.833,106.833 708.5,101.5 Z"/></g>
<g><path style="opacity:0.202" fill="#000603" d="M 110.5,108.5 C 119.597,118.994 120.764,130.327 114,142.5C 113.667,137.833 113.333,133.167 113,128.5C 112.904,125.549 112.071,122.882 110.5,120.5C 109.027,128.086 108.194,135.753 108,143.5C 100.348,134.771 99.5147,125.438 105.5,115.5C 106.934,112.953 108.6,110.619 110.5,108.5 Z"/></g>
<g><path style="opacity:1" fill="#009966" d="M 229.5,100.5 C 229.414,101.496 229.748,102.329 230.5,103C 232.333,103.167 234.167,103.333 236,103.5C 247.149,102.632 258.316,102.298 269.5,102.5C 276.867,118.953 279.534,136.286 277.5,154.5C 276.674,150.018 276.174,145.351 276,140.5C 275.503,142.81 275.337,145.143 275.5,147.5C 270.821,147.334 266.155,147.501 261.5,148C 261,148.5 260.5,149 260,149.5C 259.51,148.207 259.343,146.873 259.5,145.5C 260.461,142.574 261.127,139.574 261.5,136.5C 251.373,137.065 243.04,141.065 236.5,148.5C 236.44,147.957 236.107,147.624 235.5,147.5C 233.566,147.901 232.066,148.901 231,150.5C 230.802,148.618 230.302,146.952 229.5,145.5C 229.146,141.77 227.813,138.437 225.5,135.5C 221.831,138.841 219.164,142.841 217.5,147.5C 216.698,148.952 216.198,150.618 216,152.5C 215.517,151.552 215.351,150.552 215.5,149.5C 214.167,149.5 212.833,149.5 211.5,149.5C 211.66,151.199 211.494,152.866 211,154.5C 210.501,150.848 210.335,147.182 210.5,143.5C 214.659,128.177 223.992,117.344 238.5,111C 242.858,109.925 246.858,110.592 250.5,113C 246.5,113.333 242.5,113.667 238.5,114C 234.719,114.367 234.052,115.7 236.5,118C 240.741,119.457 245.074,119.791 249.5,119C 253.438,117.298 257.104,115.131 260.5,112.5C 254.702,107.43 248.035,105.597 240.5,107C 232.828,111.167 225.495,115.834 218.5,121C 215.333,124.833 212.167,128.667 209,132.5C 206.608,123.053 203.108,114.053 198.5,105.5C 200.607,104.532 202.941,104.198 205.5,104.5C 205.194,107.385 205.527,110.052 206.5,112.5C 206.56,113.043 206.893,113.376 207.5,113.5C 211.813,107.353 216.98,102.02 223,97.5C 221.067,103.976 217.567,109.642 212.5,114.5C 221.049,113.64 226.716,108.974 229.5,100.5 Z"/></g>
<g><path style="opacity:0.644" fill="#1b6a4c" d="M 822.5,115.5 C 821.323,117.679 820.323,120.013 819.5,122.5C 817.735,123.461 815.735,123.795 813.5,123.5C 815.026,118.09 816.859,112.756 819,107.5C 820.845,109.867 822.011,112.533 822.5,115.5 Z"/></g>
<g><path style="opacity:0.643" fill="#1b6a4c" d="M 546.5,116.5 C 545.514,118.426 544.514,120.426 543.5,122.5C 541.636,123.793 539.636,123.793 537.5,122.5C 539.408,117.023 541.575,111.69 544,106.5C 545.143,109.777 545.977,113.11 546.5,116.5 Z"/></g>
<g><path style="opacity:1" fill="#009865" d="M 190.5,101.5 C 201.258,116.867 205.592,133.867 203.5,152.5C 202.596,151.791 202.263,150.791 202.5,149.5C 198.901,148.436 195.901,146.269 193.5,143C 192.207,142.51 190.873,142.343 189.5,142.5C 186.427,141.801 183.427,140.801 180.5,139.5C 180.162,141.655 180.162,143.989 180.5,146.5C 180.67,147.822 180.337,148.989 179.5,150C 175.5,150.333 171.5,150.667 167.5,151C 164.018,152.92 163.685,152.42 166.5,149.5C 174.605,143.085 176.605,135.085 172.5,125.5C 162.364,130.108 158.364,137.775 160.5,148.5C 160.768,150.099 160.434,151.432 159.5,152.5C 156.726,145.599 153.893,138.599 151,131.5C 150.333,126.5 150.333,121.5 151,116.5C 151.473,114.221 152.473,112.221 154,110.5C 153.934,116.83 153.934,123.163 154,129.5C 154.414,129.957 154.914,130.291 155.5,130.5C 157.85,127.965 159.35,124.965 160,121.5C 160.778,116.416 160.611,111.416 159.5,106.5C 169.12,105.717 178.787,105.217 188.5,105C 189.167,104.667 189.833,104.333 190.5,104C 189.226,103.023 189.226,102.189 190.5,101.5 Z"/></g>
<g><path style="opacity:0.223" fill="#030d08" d="M 170.5,108.5 C 177.061,107.919 183.395,108.752 189.5,111C 191,112.5 192.5,114 194,115.5C 194.688,116.332 194.521,116.998 193.5,117.5C 188.929,115.078 184.262,113.744 179.5,113.5C 183.882,117.36 188.882,120.193 194.5,122C 186.494,125.338 179.994,123.505 175,116.5C 172.843,114.183 171.343,111.516 170.5,108.5 Z"/></g>
<g><path style="opacity:0.656" fill="#196649" d="M 453.5,113.5 C 458.073,117.148 460.406,121.981 460.5,128C 458.802,141.636 450.968,148.802 437,149.5C 429.71,149.014 422.876,147.014 416.5,143.5C 416.863,142.817 417.196,142.15 417.5,141.5C 420.042,142.624 422.708,143.458 425.5,144C 449.101,146.574 458.435,136.407 453.5,113.5 Z"/></g>
<g><path style="opacity:0.506" fill="#176246" d="M 424.5,112.5 C 429.141,114.485 433.807,116.485 438.5,118.5C 439.425,119.357 440.092,120.357 440.5,121.5C 433.946,120.346 428.613,117.346 424.5,112.5 Z"/></g>
<g><path style="opacity:0.659" fill="#1d6c4e" d="M 605.5,121.5 C 604.292,122.234 602.959,122.567 601.5,122.5C 601.5,131.167 601.5,139.833 601.5,148.5C 596.5,148.5 591.5,148.5 586.5,148.5C 586.5,147.167 586.5,145.833 586.5,144.5C 586.5,144.167 586.5,143.833 586.5,143.5C 589.833,143.5 593.167,143.5 596.5,143.5C 596.5,134.833 596.5,126.167 596.5,117.5C 600.779,116.493 603.779,117.826 605.5,121.5 Z"/></g>
<g><path style="opacity:1" fill="#009766" d="M 143.5,109.5 C 143.658,113.724 143.825,118.058 144,122.5C 144.183,119.635 144.683,116.969 145.5,114.5C 146.664,124.33 148.664,133.996 151.5,143.5C 150.474,146.116 151.141,148.45 153.5,150.5C 145.681,151.45 138.014,152.45 130.5,153.5C 131.441,155.05 132.107,156.716 132.5,158.5C 128.221,156.888 124.221,157.221 120.5,159.5C 115.291,153.802 109.291,148.969 102.5,145C 89.5274,139.809 76.1941,136.809 62.5,136C 59.328,137.752 56.328,139.752 53.5,142C 62.2961,150.12 71.2961,150.454 80.5,143C 74.8042,142.83 69.1376,142.33 63.5,141.5C 69.3427,139.535 75.3427,139.035 81.5,140C 88.9869,142.24 95.6536,145.74 101.5,150.5C 100.798,151.116 99.7978,151.116 98.5,150.5C 92.2355,148.488 86.5688,149.488 81.5,153.5C 80.8501,153.196 80.1835,152.863 79.5,152.5C 69.8784,153.398 60.2117,154.065 50.5,154.5C 47.2308,154.604 44.2308,155.27 41.5,156.5C 40.3431,148.01 40.1764,139.343 41,130.5C 41.8155,124.202 43.3155,118.202 45.5,112.5C 45.3601,114.124 46.0267,115.29 47.5,116C 53.5036,116.3 59.5036,116.134 65.5,115.5C 65.2639,118.226 66.0972,120.559 68,122.5C 68.4643,121.906 68.631,121.239 68.5,120.5C 71.2307,126.072 75.5641,129.572 81.5,131C 77.6952,124.258 75.5286,117.092 75,109.5C 79.5333,115.231 83.0333,121.564 85.5,128.5C 86.4841,125.572 86.8174,122.572 86.5,119.5C 87.3138,121.631 87.8138,123.964 88,126.5C 88.4986,122.848 88.6653,119.182 88.5,115.5C 94.1802,114.22 99.8469,114.22 105.5,115.5C 99.5147,125.438 100.348,134.771 108,143.5C 108.194,135.753 109.027,128.086 110.5,120.5C 112.071,122.882 112.904,125.549 113,128.5C 113.333,133.167 113.667,137.833 114,142.5C 120.764,130.327 119.597,118.994 110.5,108.5C 116.274,107.054 122.274,106.388 128.5,106.5C 128.263,105.209 128.596,104.209 129.5,103.5C 131.501,108.008 134.834,110.842 139.5,112C 132.092,92.3775 133.425,91.5441 143.5,109.5 Z"/></g>
<g><path style="opacity:0.22" fill="#030e09" d="M 121.5,116.5 C 130.724,115.588 137.891,118.922 143,126.5C 143.982,127.759 144.315,129.092 144,130.5C 139.649,126.255 134.816,123.588 129.5,122.5C 133.247,126.872 137.58,130.538 142.5,133.5C 134.684,135.344 128.85,132.677 125,125.5C 123.82,122.479 122.654,119.479 121.5,116.5 Z"/></g>
<g><path style="opacity:0.639" fill="#1a6749" d="M 560.5,144.5 C 564.647,143.675 568.981,143.175 573.5,143C 564.081,120.997 555.081,98.8305 546.5,76.5C 548.129,74.9397 549.296,75.273 550,77.5C 559.204,100.943 568.704,124.276 578.5,147.5C 572.833,148.833 567.167,148.833 561.5,147.5C 560.873,146.583 560.539,145.583 560.5,144.5 Z"/></g>
<g><path style="opacity:0.221" fill="#020d08" d="M 166.5,149.5 C 167.205,144.88 168.538,140.047 170.5,135C 170.167,134.5 169.833,134 169.5,133.5C 166.684,138.831 163.684,143.831 160.5,148.5C 158.364,137.775 162.364,130.108 172.5,125.5C 176.605,135.085 174.605,143.085 166.5,149.5 Z"/></g>
<g><path style="opacity:0.242" fill="#010906" d="M 229.5,145.5 C 230.261,150.639 228.761,154.973 225,158.5C 225.057,155.74 225.224,152.907 225.5,150C 225.167,147.833 224.833,145.667 224.5,143.5C 222.373,148.607 221.04,153.94 220.5,159.5C 218.272,155.814 217.272,151.814 217.5,147.5C 219.164,142.841 221.831,138.841 225.5,135.5C 227.813,138.437 229.146,141.77 229.5,145.5 Z"/></g>
<g><path style="opacity:0.196" fill="#020a06" d="M 259.5,145.5 C 257.17,156.995 250.17,163.495 238.5,165C 243.931,159.572 248.598,153.572 252.5,147C 251.092,146.685 249.759,147.018 248.5,148C 244,152.5 239.5,157 235,161.5C 234.422,157.045 234.922,152.712 236.5,148.5C 243.04,141.065 251.373,137.065 261.5,136.5C 261.127,139.574 260.461,142.574 259.5,145.5 Z"/></g>
<g><path style="opacity:0.664" fill="#1a674a" d="M 556.5,140.5 C 550,141.815 543.5,141.815 537,140.5C 536.342,143.285 535.509,145.951 534.5,148.5C 528.833,148.5 523.167,148.5 517.5,148.5C 517.433,147.041 517.766,145.708 518.5,144.5C 522.081,143.74 525.748,143.24 529.5,143C 530.308,140.912 531.308,138.912 532.5,137C 540.159,136.5 547.826,136.334 555.5,136.5C 555.433,137.959 555.766,139.292 556.5,140.5 Z"/></g>
<g><path style="opacity:0.669" fill="#1a674a" d="M 832.5,140.5 C 826,141.815 819.5,141.815 813,140.5C 812.023,143.102 810.856,145.602 809.5,148C 804.136,148.829 798.802,148.663 793.5,147.5C 794.127,146.583 794.461,145.583 794.5,144.5C 798.021,143.834 801.687,143.167 805.5,142.5C 806.747,140.677 807.414,138.677 807.5,136.5C 815.5,136.5 823.5,136.5 831.5,136.5C 831.433,137.959 831.766,139.292 832.5,140.5 Z"/></g>
<g><path style="opacity:0.23" fill="#020c08" d="M 189.5,142.5 C 194.629,145.559 197.962,150.059 199.5,156C 198.833,156.667 198.167,156.667 197.5,156C 194.299,152.464 190.799,149.297 187,146.5C 188.747,151.767 191.913,156.267 196.5,160C 187.681,159.684 182.348,155.184 180.5,146.5C 180.162,143.989 180.162,141.655 180.5,139.5C 183.427,140.801 186.427,141.801 189.5,142.5 Z"/></g>
<g><path style="opacity:0.225" fill="#05130d" d="M 98.5,150.5 C 94.3716,152.091 90.0383,153.758 85.5,155.5C 86.5,155.833 87.5,156.167 88.5,156.5C 92.4915,155.531 96.4915,155.031 100.5,155C 95.6358,160.26 89.6358,161.927 82.5,160C 80.6675,159.252 79.0009,158.252 77.5,157C 79.3237,156.34 80.657,155.173 81.5,153.5C 86.5688,149.488 92.2355,148.488 98.5,150.5 Z"/></g>
<g><path style="opacity:0.225" fill="#020b07" d="M 130.5,153.5 C 141.25,151.5 149.25,155.166 154.5,164.5C 154.333,164.833 154.167,165.167 154,165.5C 149.631,161.988 144.798,159.322 139.5,157.5C 138.289,158.274 138.289,159.107 139.5,160C 143.919,163.425 148.585,166.425 153.5,169C 149.833,169.667 146.167,169.667 142.5,169C 138.288,166.289 134.954,162.789 132.5,158.5C 132.107,156.716 131.441,155.05 130.5,153.5 Z"/></g>
<g><path style="opacity:1" fill="#00926a" d="M 277.5,154.5 C 277.376,159.049 276.709,163.382 275.5,167.5C 274.351,167.791 273.684,168.624 273.5,170C 273.023,172.888 272.356,175.721 271.5,178.5C 267.825,179.454 264.492,179.454 261.5,178.5C 259.037,176.539 256.703,174.372 254.5,172C 252.043,170.438 249.376,169.438 246.5,169C 232.299,167.171 218.799,169.337 206,175.5C 208.229,164.873 209.729,154.207 210.5,143.5C 210.335,147.182 210.501,150.848 211,154.5C 211.494,152.866 211.66,151.199 211.5,149.5C 212.833,149.5 214.167,149.5 215.5,149.5C 215.351,150.552 215.517,151.552 216,152.5C 216.198,150.618 216.698,148.952 217.5,147.5C 217.272,151.814 218.272,155.814 220.5,159.5C 221.04,153.94 222.373,148.607 224.5,143.5C 224.833,145.667 225.167,147.833 225.5,150C 225.224,152.907 225.057,155.74 225,158.5C 228.761,154.973 230.261,150.639 229.5,145.5C 230.302,146.952 230.802,148.618 231,150.5C 232.066,148.901 233.566,147.901 235.5,147.5C 236.107,147.624 236.44,147.957 236.5,148.5C 234.922,152.712 234.422,157.045 235,161.5C 239.5,157 244,152.5 248.5,148C 249.759,147.018 251.092,146.685 252.5,147C 248.598,153.572 243.931,159.572 238.5,165C 250.17,163.495 257.17,156.995 259.5,145.5C 259.343,146.873 259.51,148.207 260,149.5C 260.5,149 261,148.5 261.5,148C 266.155,147.501 270.821,147.334 275.5,147.5C 275.337,145.143 275.503,142.81 276,140.5C 276.174,145.351 276.674,150.018 277.5,154.5 Z"/></g>
<g><path style="opacity:1" fill="#00926a" d="M 166.5,149.5 C 163.685,152.42 164.018,152.92 167.5,151C 171.5,150.667 175.5,150.333 179.5,150C 180.337,148.989 180.67,147.822 180.5,146.5C 182.348,155.184 187.681,159.684 196.5,160C 191.913,156.267 188.747,151.767 187,146.5C 190.799,149.297 194.299,152.464 197.5,156C 198.167,156.667 198.833,156.667 199.5,156C 197.962,150.059 194.629,145.559 189.5,142.5C 190.873,142.343 192.207,142.51 193.5,143C 195.901,146.269 198.901,148.436 202.5,149.5C 202.263,150.791 202.596,151.791 203.5,152.5C 202.539,162.01 199.873,171.01 195.5,179.5C 193.589,179.574 192.422,180.574 192,182.5C 190.284,182.589 188.451,182.256 186.5,181.5C 184.851,182.648 183.351,183.981 182,185.5C 181.601,185.272 181.435,184.938 181.5,184.5C 183.992,181.531 186.492,178.531 189,175.5C 189.617,174.551 189.451,173.718 188.5,173C 182.891,171.616 177.225,171.283 171.5,172C 167.843,172.837 164.843,174.67 162.5,177.5C 161.983,175.726 161.65,174.059 161.5,172.5C 161.714,165.73 161.047,159.063 159.5,152.5C 160.434,151.432 160.768,150.099 160.5,148.5C 163.684,143.831 166.684,138.831 169.5,133.5C 169.833,134 170.167,134.5 170.5,135C 168.538,140.047 167.205,144.88 166.5,149.5 Z"/></g>
<g><path style="opacity:1" fill="#00916b" d="M 151.5,143.5 C 158.277,156.177 158.11,168.844 151,181.5C 147.5,185.833 144,190.167 140.5,194.5C 134.984,186.808 130.484,178.475 127,169.5C 125.004,166.014 122.837,162.681 120.5,159.5C 124.221,157.221 128.221,156.888 132.5,158.5C 134.954,162.789 138.288,166.289 142.5,169C 146.167,169.667 149.833,169.667 153.5,169C 148.585,166.425 143.919,163.425 139.5,160C 138.289,159.107 138.289,158.274 139.5,157.5C 144.798,159.322 149.631,161.988 154,165.5C 154.167,165.167 154.333,164.833 154.5,164.5C 149.25,155.166 141.25,151.5 130.5,153.5C 138.014,152.45 145.681,151.45 153.5,150.5C 151.141,148.45 150.474,146.116 151.5,143.5 Z"/></g>
<g><path style="opacity:1" fill="#00916b" d="M 98.5,150.5 C 99.7978,151.116 100.798,151.116 101.5,150.5C 107.723,153.884 112.89,158.551 117,164.5C 120.715,171.263 123.882,178.263 126.5,185.5C 112.595,190.635 98.5947,190.802 84.5,186C 76.516,182.857 72.3494,177.024 72,168.5C 74.2497,172.668 76.7497,176.668 79.5,180.5C 80.9691,174.084 78.9691,168.918 73.5,165C 71.6667,163.833 69.8333,162.667 68,161.5C 66.156,166.123 66.156,170.789 68,175.5C 71.3449,179.741 75.1782,183.408 79.5,186.5C 79.1583,187.338 78.4916,187.672 77.5,187.5C 72.2979,185.922 67.2979,186.256 62.5,188.5C 62.0618,188.565 61.7284,188.399 61.5,188C 62.9561,187.577 63.4561,186.744 63,185.5C 57.9513,185.913 53.118,186.913 48.5,188.5C 43.9622,178.345 41.6289,167.679 41.5,156.5C 44.2308,155.27 47.2308,154.604 50.5,154.5C 60.2117,154.065 69.8784,153.398 79.5,152.5C 80.1835,152.863 80.8501,153.196 81.5,153.5C 80.657,155.173 79.3237,156.34 77.5,157C 79.0009,158.252 80.6675,159.252 82.5,160C 89.6358,161.927 95.6358,160.26 100.5,155C 96.4915,155.031 92.4915,155.531 88.5,156.5C 87.5,156.167 86.5,155.833 85.5,155.5C 90.0383,153.758 94.3716,152.091 98.5,150.5 Z"/></g>
<g><path style="opacity:0.215" fill="#020c08" d="M 87.5,164.5 C 95.2181,165.928 101.051,169.928 105,176.5C 105.837,178.821 106.17,181.155 106,183.5C 103,179.167 99.3333,175.5 95,172.5C 96.4687,177.681 99.302,182.181 103.5,186C 98.9544,186.402 95.1211,184.902 92,181.5C 89.4245,176.124 87.9245,170.458 87.5,164.5 Z"/></g>
<g><path style="opacity:0.203" fill="#010705" d="M 181.5,184.5 C 175.665,188.14 169.332,189.307 162.5,188C 168.458,185.354 174.124,182.188 179.5,178.5C 172.82,178.272 166.487,179.939 160.5,183.5C 160.167,183.167 159.833,182.833 159.5,182.5C 160.763,180.971 161.763,179.305 162.5,177.5C 164.843,174.67 167.843,172.837 171.5,172C 177.225,171.283 182.891,171.616 188.5,173C 189.451,173.718 189.617,174.551 189,175.5C 186.492,178.531 183.992,181.531 181.5,184.5 Z"/></g>
<g><path style="opacity:1" fill="#2c9c70" d="M 951.5,181.5 C 950.666,182.748 949.333,183.415 947.5,183.5C 944.442,183.417 941.775,182.417 939.5,180.5C 937.897,179.404 936.397,178.07 935,176.5C 932.097,180.528 928.264,182.861 923.5,183.5C 921.833,183.5 920.167,183.5 918.5,183.5C 921.439,179.183 924.772,175.016 928.5,171C 933.167,170.333 937.833,170.333 942.5,171C 945.389,174.624 948.389,178.124 951.5,181.5 Z"/></g>
<g><path style="opacity:1" fill="#2b996f" d="M 597.5,179.5 C 597.414,180.496 597.748,181.329 598.5,182C 596.19,182.497 593.857,182.663 591.5,182.5C 590.833,182.167 590.167,181.833 589.5,181.5C 588.521,179.855 587.188,178.521 585.5,177.5C 582.398,180.044 579.065,182.044 575.5,183.5C 574.167,183.5 572.833,183.5 571.5,183.5C 571.33,182.178 571.663,181.011 572.5,180C 567.821,176.654 563.821,172.654 560.5,168C 560.667,167.5 560.833,167 561,166.5C 564.394,167.456 567.894,167.789 571.5,167.5C 572.71,170.061 574.376,172.395 576.5,174.5C 581.37,171.426 586.703,170.759 592.5,172.5C 594.58,174.573 596.246,176.907 597.5,179.5 Z"/></g>
<g><path style="opacity:1" fill="#35a176" d="M 799.5,176.5 C 797.697,178.481 796.03,180.648 794.5,183C 792.527,183.495 790.527,183.662 788.5,183.5C 787.022,183.762 785.689,183.429 784.5,182.5C 785.155,179.044 786.489,175.877 788.5,173C 792.871,172.172 797.205,172.339 801.5,173.5C 800.807,174.518 800.141,175.518 799.5,176.5 Z"/></g>
<g><path style="opacity:0.675" fill="#176346" d="M 795.5,186.5 C 793.167,186.5 790.833,186.5 788.5,186.5C 788.5,185.5 788.5,184.5 788.5,183.5C 790.527,183.662 792.527,183.495 794.5,183C 796.03,180.648 797.697,178.481 799.5,176.5C 801.144,176.714 802.644,176.38 804,175.5C 804.667,176.5 804.667,177.5 804,178.5C 802.167,181 800.333,183.5 798.5,186C 797.552,186.483 796.552,186.649 795.5,186.5 Z"/></g>
<g><path style="opacity:0.662" fill="#196548" d="M 939.5,180.5 C 936.495,182.507 933.495,184.507 930.5,186.5C 927.833,186.5 925.167,186.5 922.5,186.5C 922.557,185.391 922.89,184.391 923.5,183.5C 928.264,182.861 932.097,180.528 935,176.5C 936.397,178.07 937.897,179.404 939.5,180.5 Z"/></g>
<g><path style="opacity:1" fill="#008d6f" d="M 275.5,167.5 C 275.095,175.963 272.762,183.796 268.5,191C 270.844,190.232 273.177,189.065 275.5,187.5C 276.646,188.145 277.646,188.978 278.5,190C 267.069,198.311 254.403,203.811 240.5,206.5C 236.18,207.83 231.847,207.83 227.5,206.5C 212.148,208.623 196.981,210.29 182,211.5C 180.333,212.5 178.667,213.5 177,214.5C 176.601,214.272 176.435,213.938 176.5,213.5C 181.022,209.635 185.522,205.635 190,201.5C 201.8,180.848 219.634,171.014 243.5,172C 248.416,173.618 252.416,176.451 255.5,180.5C 249.198,180.454 243.365,178.454 238,174.5C 239.684,180.185 243.518,184.019 249.5,186C 254.489,186.499 259.489,186.666 264.5,186.5C 264.043,183.594 263.043,180.928 261.5,178.5C 264.492,179.454 267.825,179.454 271.5,178.5C 272.356,175.721 273.023,172.888 273.5,170C 273.684,168.624 274.351,167.791 275.5,167.5 Z"/></g>
<g><path style="opacity:0.656" fill="#186547" d="M 589.5,181.5 C 586.825,183.17 584.159,184.836 581.5,186.5C 580.167,186.5 578.833,186.5 577.5,186.5C 574.752,186.598 574.086,185.598 575.5,183.5C 579.065,182.044 582.398,180.044 585.5,177.5C 587.188,178.521 588.521,179.855 589.5,181.5 Z"/></g>
<g><path style="opacity:1" fill="#008d6f" d="M 161.5,172.5 C 161.65,174.059 161.983,175.726 162.5,177.5C 161.763,179.305 160.763,180.971 159.5,182.5C 159.833,182.833 160.167,183.167 160.5,183.5C 166.487,179.939 172.82,178.272 179.5,178.5C 174.124,182.188 168.458,185.354 162.5,188C 169.332,189.307 175.665,188.14 181.5,184.5C 181.435,184.938 181.601,185.272 182,185.5C 183.351,183.981 184.851,182.648 186.5,181.5C 188.451,182.256 190.284,182.589 192,182.5C 192.422,180.574 193.589,179.574 195.5,179.5C 186.978,195.187 174.478,206.52 158,213.5C 153.167,210 149,205.833 145.5,201C 148.258,195.907 151.425,191.073 155,186.5C 157.285,181.773 159.452,177.107 161.5,172.5 Z"/></g>
<g><path style="opacity:0.22" fill="#020b08" d="M 211.5,182.5 C 220.399,182.723 227.065,186.723 231.5,194.5C 224.385,197.292 217.385,197.125 210.5,194C 209.167,192.667 207.833,191.333 206.5,190C 227.463,194.269 227.796,192.603 207.5,185C 209.066,184.392 210.4,183.558 211.5,182.5 Z"/></g>
<g><path style="opacity:0.712" fill="#1c6a4d" d="M 597.5,179.5 C 605.118,185.369 604.118,187.535 594.5,186C 593.29,184.961 592.29,183.794 591.5,182.5C 593.857,182.663 596.19,182.497 598.5,182C 597.748,181.329 597.414,180.496 597.5,179.5 Z"/></g>
<g><path style="opacity:0.046" fill="#8ccbb4" d="M 620.5,186.5 C 619.167,186.5 617.833,186.5 616.5,186.5C 616.5,204.5 616.5,222.5 616.5,240.5C 615.503,222.341 615.17,204.008 615.5,185.5C 617.415,185.216 619.081,185.549 620.5,186.5 Z"/></g>
<g><path style="opacity:0.335" fill="#196146" d="M 939.5,180.5 C 941.775,182.417 944.442,183.417 947.5,183.5C 949.333,183.415 950.666,182.748 951.5,181.5C 955.546,184.464 955.213,186.131 950.5,186.5C 949.167,186.5 947.833,186.5 946.5,186.5C 943.609,185.211 941.275,183.211 939.5,180.5 Z"/></g>
<g><path style="opacity:1" fill="#279c6f" d="M 469.5,197.5 C 477.477,212.438 475.144,225.605 462.5,237C 452.206,242.685 441.872,242.852 431.5,237.5C 424.425,233.227 420.259,226.894 419,218.5C 418.523,193.475 430.69,182.975 455.5,187C 461.89,188.346 466.557,191.846 469.5,197.5 Z M 457.5,202.5 C 460.649,205.379 461.982,209.045 461.5,213.5C 461.375,223.294 456.375,228.628 446.5,229.5C 442.69,229.124 439.356,227.791 436.5,225.5C 431.839,207.147 438.839,199.48 457.5,202.5 Z"/></g>
<g><path style="opacity:1" fill="#219b6d" d="M 554.5,188.5 C 553.503,205.659 553.17,222.992 553.5,240.5C 550.833,240.5 548.167,240.5 545.5,240.5C 544.5,240.5 543.5,240.5 542.5,240.5C 542.5,233.167 542.5,225.833 542.5,218.5C 542.663,216.143 542.497,213.81 542,211.5C 537.997,216.335 533.83,221.002 529.5,225.5C 526.167,222.167 522.833,218.833 519.5,215.5C 518.524,214.185 517.524,212.852 516.5,211.5C 515.502,221.144 515.168,230.81 515.5,240.5C 513.167,240.5 510.833,240.5 508.5,240.5C 507.791,239.596 506.791,239.263 505.5,239.5C 505.5,221.833 505.5,204.167 505.5,186.5C 506.5,186.5 507.5,186.5 508.5,186.5C 515.23,193.713 522.23,200.713 529.5,207.5C 536.322,200.51 542.989,193.343 549.5,186C 551.134,185.506 552.801,185.34 554.5,185.5C 554.5,186.5 554.5,187.5 554.5,188.5 Z"/></g>
<g><path style="opacity:1" fill="#239b6e" d="M 666.5,188.5 C 665.503,205.659 665.17,222.992 665.5,240.5C 662.833,240.5 660.167,240.5 657.5,240.5C 656.5,240.5 655.5,240.5 654.5,240.5C 654.5,233.167 654.5,225.833 654.5,218.5C 654.663,216.143 654.497,213.81 654,211.5C 649.255,215.74 645.088,220.407 641.5,225.5C 638.141,222.471 634.808,219.471 631.5,216.5C 630.969,214.456 629.802,212.789 628,211.5C 627.5,221.161 627.334,230.828 627.5,240.5C 624.833,240.5 622.167,240.5 619.5,240.5C 618.5,240.5 617.5,240.5 616.5,240.5C 616.5,222.5 616.5,204.5 616.5,186.5C 617.833,186.5 619.167,186.5 620.5,186.5C 627.171,193.67 634.004,200.67 641,207.5C 648.13,200.701 654.964,193.534 661.5,186C 663.134,185.506 664.801,185.34 666.5,185.5C 666.5,186.5 666.5,187.5 666.5,188.5 Z"/></g>
<g><path style="opacity:0.6" fill="#72c0a3" d="M 732.5,189.5 C 731.833,189.5 731.5,189.833 731.5,190.5C 730.596,189.791 730.263,188.791 730.5,187.5C 718.5,187.5 706.5,187.5 694.5,187.5C 694.5,190.833 694.5,194.167 694.5,197.5C 695.5,197.5 696.5,197.5 697.5,197.5C 697.5,198.167 697.167,198.5 696.5,198.5C 695.5,198.5 694.5,198.5 693.5,198.5C 693.5,194.5 693.5,190.5 693.5,186.5C 706.171,186.333 718.838,186.5 731.5,187C 732.252,187.671 732.586,188.504 732.5,189.5 Z"/></g>
<g><path style="opacity:0.601" fill="#70bfa2" d="M 861.5,190.5 C 861.167,190.5 860.833,190.5 860.5,190.5C 860.5,189.5 860.5,188.5 860.5,187.5C 848.5,187.5 836.5,187.5 824.5,187.5C 823.931,191.329 824.598,194.663 826.5,197.5C 826.5,197.833 826.5,198.167 826.5,198.5C 825.5,198.5 824.5,198.5 823.5,198.5C 823.5,194.5 823.5,190.5 823.5,186.5C 836.167,186.5 848.833,186.5 861.5,186.5C 861.5,187.833 861.5,189.167 861.5,190.5 Z"/></g>
<g><path style="opacity:0.233" fill="#7fc6ac" d="M 907.5,189.5 C 904.169,187.702 900.502,187.036 896.5,187.5C 896.829,200.011 896.495,212.345 895.5,224.5C 895.5,211.833 895.5,199.167 895.5,186.5C 899.5,186.5 903.5,186.5 907.5,186.5C 907.5,187.5 907.5,188.5 907.5,189.5 Z"/></g>
<g><path style="opacity:1" fill="#259c6f" d="M 348.5,190.5 C 347.834,193.358 347.167,196.358 346.5,199.5C 337.702,195.823 329.869,197.157 323,203.5C 320.576,208.57 319.909,213.903 321,219.5C 321.792,222.106 323.292,224.106 325.5,225.5C 329.292,228.43 333.625,229.763 338.5,229.5C 338.5,223.833 338.5,218.167 338.5,212.5C 342.167,212.5 345.833,212.5 349.5,212.5C 349.5,213.833 349.5,215.167 349.5,216.5C 349.83,223.532 349.497,230.532 348.5,237.5C 340.721,240.889 332.721,241.389 324.5,239C 322.595,237.579 320.595,236.412 318.5,235.5C 314.293,232.959 311.627,229.292 310.5,224.5C 308.699,220.067 308.033,215.4 308.5,210.5C 310.708,194.298 320.041,186.298 336.5,186.5C 340.525,186.668 344.525,187.001 348.5,187.5C 348.5,188.5 348.5,189.5 348.5,190.5 Z"/></g>
<g><path style="opacity:1" fill="#1b9a6b" d="M 371.5,189.5 C 371.5,206.5 371.5,223.5 371.5,240.5C 369.167,240.5 366.833,240.5 364.5,240.5C 363.791,239.596 362.791,239.263 361.5,239.5C 361.5,222.167 361.5,204.833 361.5,187.5C 365.329,186.931 368.663,187.598 371.5,189.5 Z"/></g>
<g><path style="opacity:0.172" fill="#7fc6ac" d="M 410.5,189.5 C 410.5,189.833 410.5,190.167 410.5,190.5C 409.596,189.791 409.263,188.791 409.5,187.5C 400.833,187.5 392.167,187.5 383.5,187.5C 383.5,205.167 383.5,222.833 383.5,240.5C 382.503,222.674 382.17,204.674 382.5,186.5C 391.833,186.5 401.167,186.5 410.5,186.5C 410.5,187.5 410.5,188.5 410.5,189.5 Z"/></g>
<g><path style="opacity:1" fill="#229b6d" d="M 410.5,190.5 C 410.5,192.833 410.5,195.167 410.5,197.5C 405.167,197.5 399.833,197.5 394.5,197.5C 394.5,201.167 394.5,204.833 394.5,208.5C 395.959,208.567 397.292,208.234 398.5,207.5C 401.833,207.5 405.167,207.5 408.5,207.5C 408.5,208.833 408.5,210.167 408.5,211.5C 408.5,214.167 408.5,216.833 408.5,219.5C 403.833,219.5 399.167,219.5 394.5,219.5C 394.5,222.833 394.5,226.167 394.5,229.5C 395.959,229.567 397.292,229.234 398.5,228.5C 402.833,228.5 407.167,228.5 411.5,228.5C 411.5,229.833 411.5,231.167 411.5,232.5C 411.5,235.167 411.5,237.833 411.5,240.5C 403.167,240.5 394.833,240.5 386.5,240.5C 385.5,240.5 384.5,240.5 383.5,240.5C 383.5,222.833 383.5,205.167 383.5,187.5C 392.167,187.5 400.833,187.5 409.5,187.5C 409.263,188.791 409.596,189.791 410.5,190.5 Z"/></g>
<g><path style="opacity:0.835" fill="#5fb897" d="M 508.5,186.5 C 507.5,186.5 506.5,186.5 505.5,186.5C 505.5,204.167 505.5,221.833 505.5,239.5C 506.791,239.263 507.791,239.596 508.5,240.5C 508.167,240.5 507.833,240.5 507.5,240.5C 505.897,240.688 504.563,240.188 503.5,239C 504.492,221.243 504.826,203.41 504.5,185.5C 506.099,185.232 507.432,185.566 508.5,186.5 Z"/></g>
<g><path style="opacity:1" fill="#269c6f" d="M 577.5,186.5 C 578.833,186.5 580.167,186.5 581.5,186.5C 585.226,186.177 588.893,186.511 592.5,187.5C 592.863,188.183 593.196,188.85 593.5,189.5C 599.364,206.426 605.031,223.426 610.5,240.5C 607.167,240.5 603.833,240.5 600.5,240.5C 599.504,240.586 598.671,240.252 598,239.5C 597.458,236.708 596.624,234.042 595.5,231.5C 595.67,230.178 595.337,229.011 594.5,228C 588.175,227.5 581.842,227.334 575.5,227.5C 574.63,231.577 573.463,235.577 572,239.5C 569.281,240.444 566.448,240.777 563.5,240.5C 562.178,240.33 561.011,240.663 560,241.5C 559.333,239.833 559.333,238.167 560,236.5C 566.448,220.035 572.282,203.368 577.5,186.5 Z M 587.5,206.5 C 589.128,209.882 590.461,213.382 591.5,217C 588.854,217.497 586.187,217.664 583.5,217.5C 584.59,213.645 585.923,209.979 587.5,206.5 Z"/></g>
<g><path style="opacity:1" fill="#249b6e" d="M 731.5,190.5 C 731.5,192.833 731.5,195.167 731.5,197.5C 727.167,197.5 722.833,197.5 718.5,197.5C 718.5,211.833 718.5,226.167 718.5,240.5C 715.833,240.5 713.167,240.5 710.5,240.5C 709.167,240.5 707.833,240.5 706.5,240.5C 706.5,227.5 706.5,214.5 706.5,201.5C 707.434,200.432 707.768,199.099 707.5,197.5C 704.167,197.5 700.833,197.5 697.5,197.5C 696.5,197.5 695.5,197.5 694.5,197.5C 694.5,194.167 694.5,190.833 694.5,187.5C 706.5,187.5 718.5,187.5 730.5,187.5C 730.263,188.791 730.596,189.791 731.5,190.5 Z"/></g>
<g><path style="opacity:0.609" fill="#71bfa2" d="M 764.5,187.5 C 756.167,187.5 747.833,187.5 739.5,187.5C 739.5,204.833 739.5,222.167 739.5,239.5C 740.791,239.263 741.791,239.596 742.5,240.5C 742.167,240.5 741.833,240.5 741.5,240.5C 740.5,240.5 739.5,240.5 738.5,240.5C 738.5,222.5 738.5,204.5 738.5,186.5C 747.349,186.174 756.016,186.507 764.5,187.5 Z"/></g>
<g><path style="opacity:1" fill="#209b6d" d="M 764.5,187.5 C 768.565,187.897 771.565,189.897 773.5,193.5C 778.329,204.474 775.662,212.974 765.5,219C 769.699,225.703 773.699,232.537 777.5,239.5C 774.232,240.487 770.898,240.82 767.5,240.5C 765.408,240.439 763.908,239.439 763,237.5C 761.006,232.697 758.84,228.031 756.5,223.5C 755.766,222.292 755.433,220.959 755.5,219.5C 753.5,219.5 751.5,219.5 749.5,219.5C 749.5,226.5 749.5,233.5 749.5,240.5C 747.167,240.5 744.833,240.5 742.5,240.5C 741.791,239.596 740.791,239.263 739.5,239.5C 739.5,222.167 739.5,204.833 739.5,187.5C 747.833,187.5 756.167,187.5 764.5,187.5 Z M 763.5,201.5 C 764.562,203.556 764.229,205.556 762.5,207.5C 759.673,208.932 756.673,209.599 753.5,209.5C 753.5,206.833 753.5,204.167 753.5,201.5C 756.833,201.5 760.167,201.5 763.5,201.5 Z"/></g>
<g><path style="opacity:0.969" fill="#52af8b" d="M 788.5,186.5 C 790.833,186.5 793.167,186.5 795.5,186.5C 795.5,187.833 795.5,189.167 795.5,190.5C 795.5,207.167 795.5,223.833 795.5,240.5C 792.833,240.5 790.167,240.5 787.5,240.5C 786.167,240.5 784.833,240.5 783.5,240.5C 783.5,222.5 783.5,204.5 783.5,186.5C 785.167,186.5 786.833,186.5 788.5,186.5 Z"/></g>
<g><path style="opacity:1" fill="#1b9a6a" d="M 785.5,187.5 C 788.5,187.5 791.5,187.5 794.5,187.5C 794.5,204.833 794.5,222.167 794.5,239.5C 791.5,239.5 788.5,239.5 785.5,239.5C 785.5,222.167 785.5,204.833 785.5,187.5 Z"/></g>
<g><path style="opacity:1" fill="#1b9a6b" d="M 860.5,190.5 C 860.5,192.833 860.5,195.167 860.5,197.5C 856.167,197.5 851.833,197.5 847.5,197.5C 847.5,211.833 847.5,226.167 847.5,240.5C 845.167,240.5 842.833,240.5 840.5,240.5C 839.791,239.596 838.791,239.263 837.5,239.5C 837.5,226.833 837.5,214.167 837.5,201.5C 837.5,200.167 837.5,198.833 837.5,197.5C 833.833,197.5 830.167,197.5 826.5,197.5C 824.598,194.663 823.931,191.329 824.5,187.5C 836.5,187.5 848.5,187.5 860.5,187.5C 860.5,188.5 860.5,189.5 860.5,190.5 Z"/></g>
<g><path style="opacity:1" fill="#219b6d" d="M 879.5,187.5 C 879.5,188.5 879.5,189.5 879.5,190.5C 879.333,201.838 879.5,213.172 880,224.5C 880.66,226.324 881.827,227.657 883.5,228.5C 888.656,230.538 892.656,229.205 895.5,224.5C 896.495,212.345 896.829,200.011 896.5,187.5C 900.502,187.036 904.169,187.702 907.5,189.5C 907.667,201.171 907.5,212.838 907,224.5C 903.592,237.635 895.092,242.801 881.5,240C 880.095,238.731 878.429,238.231 876.5,238.5C 871.759,235.076 869.092,230.409 868.5,224.5C 868.5,212.167 868.5,199.833 868.5,187.5C 872.167,187.5 875.833,187.5 879.5,187.5 Z"/></g>
<g><path style="opacity:0.09" fill="#83c7ae" d="M 922.5,186.5 C 925.167,186.5 927.833,186.5 930.5,186.5C 935.833,186.5 941.167,186.5 946.5,186.5C 947.833,186.5 949.167,186.5 950.5,186.5C 950.5,186.833 950.5,187.167 950.5,187.5C 940.167,187.5 929.833,187.5 919.5,187.5C 919.5,205.167 919.5,222.833 919.5,240.5C 918.503,222.674 918.17,204.674 918.5,186.5C 919.833,186.5 921.167,186.5 922.5,186.5 Z"/></g>
<g><path style="opacity:1" fill="#1f9b6d" d="M 950.5,187.5 C 950.5,188.167 950.5,188.833 950.5,189.5C 950.5,191.833 950.5,194.167 950.5,196.5C 943.833,196.5 937.167,196.5 930.5,196.5C 930.5,200.167 930.5,203.833 930.5,207.5C 931.833,207.5 933.167,207.5 934.5,207.5C 939.421,207.862 944.087,208.862 948.5,210.5C 948.5,212.833 948.5,215.167 948.5,217.5C 942.5,217.5 936.5,217.5 930.5,217.5C 930.5,221.833 930.5,226.167 930.5,230.5C 931.833,230.5 933.167,230.5 934.5,230.5C 939.833,230.5 945.167,230.5 950.5,230.5C 950.5,231.5 950.5,232.5 950.5,233.5C 950.5,235.833 950.5,238.167 950.5,240.5C 941.167,240.5 931.833,240.5 922.5,240.5C 921.5,240.5 920.5,240.5 919.5,240.5C 919.5,222.833 919.5,205.167 919.5,187.5C 929.833,187.5 940.167,187.5 950.5,187.5 Z"/></g>
<g><path style="opacity:0.761" fill="#67bb9c" d="M 372.5,189.5 C 372.167,189.5 371.833,189.5 371.5,189.5C 368.663,187.598 365.329,186.931 361.5,187.5C 361.5,204.833 361.5,222.167 361.5,239.5C 362.791,239.263 363.791,239.596 364.5,240.5C 364.167,240.5 363.833,240.5 363.5,240.5C 362.5,240.5 361.5,240.5 360.5,240.5C 360.5,222.5 360.5,204.5 360.5,186.5C 364.5,186.5 368.5,186.5 372.5,186.5C 372.5,187.5 372.5,188.5 372.5,189.5 Z"/></g>
<g><path style="opacity:0.113" fill="#83c8ae" d="M 879.5,187.5 C 875.833,187.5 872.167,187.5 868.5,187.5C 868.5,199.833 868.5,212.167 868.5,224.5C 867.505,212.011 867.171,199.344 867.5,186.5C 871.702,186.183 875.702,186.517 879.5,187.5 Z"/></g>
<g><path style="opacity:0.655" fill="#1c6a4c" d="M 371.5,189.5 C 371.833,189.5 372.167,189.5 372.5,189.5C 373.5,189.5 374.5,189.5 375.5,189.5C 375.5,207.5 375.5,225.5 375.5,243.5C 371.5,243.5 367.5,243.5 363.5,243.5C 363.5,242.5 363.5,241.5 363.5,240.5C 363.833,240.5 364.167,240.5 364.5,240.5C 366.833,240.5 369.167,240.5 371.5,240.5C 371.5,223.5 371.5,206.5 371.5,189.5 Z"/></g>
<g><path style="opacity:0.657" fill="#1d6b4d" d="M 554.5,188.5 C 555.5,188.5 556.5,188.5 557.5,188.5C 557.5,206.833 557.5,225.167 557.5,243.5C 553.5,243.5 549.5,243.5 545.5,243.5C 545.5,242.5 545.5,241.5 545.5,240.5C 548.167,240.5 550.833,240.5 553.5,240.5C 553.17,222.992 553.503,205.659 554.5,188.5 Z"/></g>
<g><path style="opacity:0.66" fill="#196649" d="M 666.5,188.5 C 667.496,188.414 668.329,188.748 669,189.5C 669.5,207.497 669.667,225.497 669.5,243.5C 665.5,243.5 661.5,243.5 657.5,243.5C 657.5,242.5 657.5,241.5 657.5,240.5C 660.167,240.5 662.833,240.5 665.5,240.5C 665.17,222.992 665.503,205.659 666.5,188.5 Z"/></g>
<g><path style="opacity:0.647" fill="#196547" d="M 787.5,240.5 C 790.167,240.5 792.833,240.5 795.5,240.5C 795.5,223.833 795.5,207.167 795.5,190.5C 796.708,189.766 798.041,189.433 799.5,189.5C 799.5,207.5 799.5,225.5 799.5,243.5C 795.5,243.5 791.5,243.5 787.5,243.5C 787.5,242.5 787.5,241.5 787.5,240.5 Z"/></g>
<g><path style="opacity:0.602" fill="#166245" d="M 883.5,228.5 C 881.827,227.657 880.66,226.324 880,224.5C 879.5,213.172 879.333,201.838 879.5,190.5C 880.708,189.766 882.041,189.433 883.5,189.5C 883.5,202.5 883.5,215.5 883.5,228.5 Z"/></g>
<g><path style="opacity:0.655" fill="#196749" d="M 907.5,189.5 C 908.5,189.5 909.5,189.5 910.5,189.5C 910.667,203.171 910.5,216.837 910,230.5C 905.22,242.804 896.387,246.97 883.5,243C 880.761,241.974 878.428,240.474 876.5,238.5C 878.429,238.231 880.095,238.731 881.5,240C 895.092,242.801 903.592,237.635 907,224.5C 907.5,212.838 907.667,201.171 907.5,189.5 Z"/></g>
<g><path style="opacity:0.661" fill="#1a684a" d="M 732.5,189.5 C 734.423,193.029 735.089,197.029 734.5,201.5C 730.167,201.5 725.833,201.5 721.5,201.5C 721.5,215.5 721.5,229.5 721.5,243.5C 717.445,243.824 713.445,243.491 709.5,242.5C 709.863,241.817 710.196,241.15 710.5,240.5C 713.167,240.5 715.833,240.5 718.5,240.5C 718.5,226.167 718.5,211.833 718.5,197.5C 722.833,197.5 727.167,197.5 731.5,197.5C 731.5,195.167 731.5,192.833 731.5,190.5C 731.5,189.833 731.833,189.5 732.5,189.5 Z"/></g>
<g><path style="opacity:0.651" fill="#1a674a" d="M 950.5,189.5 C 951.5,189.5 952.5,189.5 953.5,189.5C 953.5,193.167 953.5,196.833 953.5,200.5C 947.167,200.5 940.833,200.5 934.5,200.5C 934.5,202.833 934.5,205.167 934.5,207.5C 933.167,207.5 931.833,207.5 930.5,207.5C 930.5,203.833 930.5,200.167 930.5,196.5C 937.167,196.5 943.833,196.5 950.5,196.5C 950.5,194.167 950.5,191.833 950.5,189.5 Z"/></g>
<g><path style="opacity:0.655" fill="#196649" d="M 457.5,202.5 C 438.839,199.48 431.839,207.147 436.5,225.5C 430.168,219.507 429.001,212.507 433,204.5C 438.702,197.392 445.869,195.558 454.5,199C 455.71,200.039 456.71,201.206 457.5,202.5 Z"/></g>
<g><path style="opacity:0.658" fill="#196649" d="M 348.5,190.5 C 350.09,190.628 351.423,191.295 352.5,192.5C 351.477,196.113 350.644,199.779 350,203.5C 330.085,197.864 321.918,205.198 325.5,225.5C 323.292,224.106 321.792,222.106 321,219.5C 319.909,213.903 320.576,208.57 323,203.5C 329.869,197.157 337.702,195.823 346.5,199.5C 347.167,196.358 347.834,193.358 348.5,190.5 Z"/></g>
<g><path style="opacity:0.65" fill="#1c6b4d" d="M 763.5,201.5 C 760.167,201.5 756.833,201.5 753.5,201.5C 753.5,204.167 753.5,206.833 753.5,209.5C 752.167,209.5 750.833,209.5 749.5,209.5C 749.5,205.5 749.5,201.5 749.5,197.5C 753.182,197.335 756.848,197.501 760.5,198C 762.426,198.422 763.426,199.589 763.5,201.5 Z"/></g>
<g><path style="opacity:0.657" fill="#1d6c4d" d="M 839.5,240.5 C 839.833,240.5 840.167,240.5 840.5,240.5C 842.833,240.5 845.167,240.5 847.5,240.5C 847.5,226.167 847.5,211.833 847.5,197.5C 851.833,197.5 856.167,197.5 860.5,197.5C 860.5,195.167 860.5,192.833 860.5,190.5C 860.833,190.5 861.167,190.5 861.5,190.5C 862.688,189.316 863.855,189.316 865,190.5C 865.499,194.152 865.665,197.818 865.5,201.5C 860.833,201.5 856.167,201.5 851.5,201.5C 851.5,215.5 851.5,229.5 851.5,243.5C 847.5,243.5 843.5,243.5 839.5,243.5C 839.5,242.5 839.5,241.5 839.5,240.5 Z"/></g>
<g><path style="opacity:0.33" fill="#1a6347" d="M 410.5,189.5 C 411.833,189.5 413.167,189.5 414.5,189.5C 414.5,193.5 414.5,197.5 414.5,201.5C 409.167,201.5 403.833,201.5 398.5,201.5C 398.5,203.5 398.5,205.5 398.5,207.5C 397.292,208.234 395.959,208.567 394.5,208.5C 394.5,204.833 394.5,201.167 394.5,197.5C 399.833,197.5 405.167,197.5 410.5,197.5C 410.5,195.167 410.5,192.833 410.5,190.5C 410.5,190.167 410.5,189.833 410.5,189.5 Z"/></g>
<g><path style="opacity:0.332" fill="#1a6548" d="M 697.5,197.5 C 700.833,197.5 704.167,197.5 707.5,197.5C 707.768,199.099 707.434,200.432 706.5,201.5C 703.167,201.5 699.833,201.5 696.5,201.5C 696.5,200.5 696.5,199.5 696.5,198.5C 697.167,198.5 697.5,198.167 697.5,197.5 Z"/></g>
<g><path style="opacity:0.33" fill="#1a6549" d="M 826.5,197.5 C 830.167,197.5 833.833,197.5 837.5,197.5C 837.5,198.833 837.5,200.167 837.5,201.5C 837.167,201.5 836.833,201.5 836.5,201.5C 833.167,201.5 829.833,201.5 826.5,201.5C 826.5,200.5 826.5,199.5 826.5,198.5C 826.5,198.167 826.5,197.833 826.5,197.5 Z"/></g>
<g><path style="opacity:0.645" fill="#1a694b" d="M 587.5,206.5 C 585.923,209.979 584.59,213.645 583.5,217.5C 582.167,217.5 580.833,217.5 579.5,217.5C 581.167,210.502 583,203.502 585,196.5C 586.524,199.61 587.358,202.944 587.5,206.5 Z"/></g>
<g><path style="opacity:0.597" fill="#72c0a2" d="M 836.5,201.5 C 836.833,201.5 837.167,201.5 837.5,201.5C 837.5,214.167 837.5,226.833 837.5,239.5C 838.791,239.263 839.791,239.596 840.5,240.5C 840.167,240.5 839.833,240.5 839.5,240.5C 838.5,240.5 837.5,240.5 836.5,240.5C 836.5,227.5 836.5,214.5 836.5,201.5 Z"/></g>
<g><path style="opacity:1" fill="#008c6f" d="M 62.5,188.5 C 61.0262,189.584 60.1929,190.918 60,192.5C 66.6366,197.922 73.1366,197.756 79.5,192C 75.1667,191.667 70.8333,191.333 66.5,191C 70.1135,189.409 73.7802,188.242 77.5,187.5C 78.4916,187.672 79.1583,187.338 79.5,186.5C 95.4203,194.429 112.087,196.596 129.5,193C 132.473,200.138 136.473,206.638 141.5,212.5C 139.227,213.695 136.894,213.695 134.5,212.5C 132.627,212.482 132.294,212.982 133.5,214C 132.207,214.49 130.873,214.657 129.5,214.5C 109.529,214.935 89.5294,214.935 69.5,214.5C 54.2293,212.187 39.5626,207.854 25.5,201.5C 25.1583,200.662 24.4916,200.328 23.5,200.5C 23.5,199.833 23.5,199.167 23.5,198.5C 25.4546,197.677 27.4546,197.51 29.5,198C 41.057,204.372 53.3903,208.539 66.5,210.5C 73.2675,212.317 80.2675,212.817 87.5,212C 81.8321,211.083 76.1655,210.25 70.5,209.5C 56.0832,207.529 42.7499,202.696 30.5,195C 31.3992,193.764 32.5659,192.93 34,192.5C 42.7748,198.149 52.2748,202.149 62.5,204.5C 66.7918,206.9 71.4584,207.734 76.5,207C 72.4491,205.938 68.4491,204.772 64.5,203.5C 54.6854,200.593 45.6854,196.093 37.5,190C 38.672,187.945 40.3386,187.278 42.5,188C 44.3211,189.743 46.3211,191.243 48.5,192.5C 49.2916,191.3 49.2916,189.967 48.5,188.5C 53.118,186.913 57.9513,185.913 63,185.5C 63.4561,186.744 62.9561,187.577 61.5,188C 61.7284,188.399 62.0618,188.565 62.5,188.5 Z"/></g>
<g><path style="opacity:0.231" fill="#051310" d="M 99.5,195.5 C 102.187,195.336 104.854,195.503 107.5,196C 104.371,197.399 101.371,199.065 98.5,201C 102.337,201.131 106.004,200.298 109.5,198.5C 109.833,198.833 110.167,199.167 110.5,199.5C 106.772,204.694 101.772,206.527 95.5,205C 94.09,204.632 93.09,203.799 92.5,202.5C 94.6729,199.932 97.0062,197.599 99.5,195.5 Z"/></g>
<g><path style="opacity:0.247" fill="#03100c" d="M 77.5,187.5 C 73.7802,188.242 70.1135,189.409 66.5,191C 70.8333,191.333 75.1667,191.667 79.5,192C 73.1366,197.756 66.6366,197.922 60,192.5C 60.1929,190.918 61.0262,189.584 62.5,188.5C 67.2979,186.256 72.2979,185.922 77.5,187.5 Z"/></g>
<g><path style="opacity:0.478" fill="#062f26" d="M 64.5,203.5 C 68.4491,204.772 72.4491,205.938 76.5,207C 71.4584,207.734 66.7918,206.9 62.5,204.5C 63.4916,204.672 64.1583,204.338 64.5,203.5 Z"/></g>
<g><path style="opacity:0.737" fill="#6dbd9f" d="M 934.5,207.5 C 939.5,207.5 944.5,207.5 949.5,207.5C 949.5,208.5 949.5,209.5 949.5,210.5C 949.167,210.5 948.833,210.5 948.5,210.5C 944.087,208.862 939.421,207.862 934.5,207.5 Z"/></g>
<g><path style="opacity:0.431" fill="#04362c" d="M 70.5,209.5 C 76.1655,210.25 81.8321,211.083 87.5,212C 80.2675,212.817 73.2675,212.317 66.5,210.5C 68.099,210.768 69.4324,210.434 70.5,209.5 Z"/></g>
<g><path style="opacity:1" fill="#008775" d="M 258.5,207.5 C 248.527,209.106 238.527,210.606 228.5,212C 239.912,212.745 250.912,211.245 261.5,207.5C 271.603,204.355 281.603,201.021 291.5,197.5C 291.5,198.167 291.833,198.5 292.5,198.5C 292.218,199.778 291.551,200.778 290.5,201.5C 275.266,208.453 259.266,212.953 242.5,215C 228.617,215.725 214.784,215.225 201,213.5C 191.945,213.482 183.112,214.815 174.5,217.5C 172.83,217.751 171.33,218.418 170,219.5C 169.601,219.272 169.435,218.938 169.5,218.5C 171.55,216.453 173.883,214.786 176.5,213.5C 176.435,213.938 176.601,214.272 177,214.5C 178.667,213.5 180.333,212.5 182,211.5C 196.981,210.29 212.148,208.623 227.5,206.5C 231.847,207.83 236.18,207.83 240.5,206.5C 240.917,207.124 241.584,207.457 242.5,207.5C 256.549,204.483 269.882,199.483 282.5,192.5C 286.289,194.649 285.955,196.482 281.5,198C 273.774,201.29 266.107,204.457 258.5,207.5 Z"/></g>
<g><path style="opacity:0.302" fill="#08221f" d="M 258.5,207.5 C 259.5,207.5 260.5,207.5 261.5,207.5C 250.912,211.245 239.912,212.745 228.5,212C 238.527,210.606 248.527,209.106 258.5,207.5 Z"/></g>
<g><path style="opacity:0.663" fill="#196648" d="M 469.5,197.5 C 471.785,198.957 473.618,200.957 475,203.5C 480.011,214.807 478.844,225.474 471.5,235.5C 462.051,244.378 451.051,246.878 438.5,243C 435.36,242.009 433.026,240.176 431.5,237.5C 441.872,242.852 452.206,242.685 462.5,237C 475.144,225.605 477.477,212.438 469.5,197.5 Z"/></g>
<g><path style="opacity:1" fill="#008077" d="M 169.5,218.5 C 169.435,218.938 169.601,219.272 170,219.5C 171.33,218.418 172.83,217.751 174.5,217.5C 189.141,218.33 203.808,220.163 218.5,223C 227.5,223.667 236.5,223.667 245.5,223C 261.743,219.709 277.743,215.542 293.5,210.5C 293.5,212.167 293.5,213.833 293.5,215.5C 295.5,215.5 297.5,215.5 299.5,215.5C 299.318,217.591 299.652,219.591 300.5,221.5C 264.475,231.177 228.475,240.843 192.5,250.5C 190.852,241.702 186.518,234.535 179.5,229C 175.167,226.167 170.833,223.333 166.5,220.5C 167.005,219.081 168.005,218.415 169.5,218.5 Z"/></g>
<g><path style="opacity:0.655" fill="#186548" d="M 542.5,218.5 C 539.509,222.672 535.843,225.839 531.5,228C 530.619,227.292 529.953,226.458 529.5,225.5C 533.83,221.002 537.997,216.335 542,211.5C 542.497,213.81 542.663,216.143 542.5,218.5 Z"/></g>
<g><path style="opacity:0.633" fill="#1b694b" d="M 631.5,216.5 C 631.5,225.5 631.5,234.5 631.5,243.5C 627.5,243.5 623.5,243.5 619.5,243.5C 619.5,242.5 619.5,241.5 619.5,240.5C 622.167,240.5 624.833,240.5 627.5,240.5C 627.334,230.828 627.5,221.161 628,211.5C 629.802,212.789 630.969,214.456 631.5,216.5 Z"/></g>
<g><path style="opacity:0.653" fill="#196649" d="M 654.5,218.5 C 651.632,221.688 648.632,224.855 645.5,228C 643.588,228.279 642.254,227.446 641.5,225.5C 645.088,220.407 649.255,215.74 654,211.5C 654.497,213.81 654.663,216.143 654.5,218.5 Z"/></g>
<g><path style="opacity:0.656" fill="#1d6c4e" d="M 519.5,215.5 C 519.5,224.833 519.5,234.167 519.5,243.5C 515.5,243.5 511.5,243.5 507.5,243.5C 507.5,242.5 507.5,241.5 507.5,240.5C 507.833,240.5 508.167,240.5 508.5,240.5C 510.833,240.5 513.167,240.5 515.5,240.5C 515.168,230.81 515.502,221.144 516.5,211.5C 517.524,212.852 518.524,214.185 519.5,215.5 Z"/></g>
<g><path style="opacity:1" fill="#008573" d="M 129.5,214.5 C 130.873,214.657 132.207,214.49 133.5,214C 132.294,212.982 132.627,212.482 134.5,212.5C 136.894,213.695 139.227,213.695 141.5,212.5C 144.297,214.795 146.964,217.295 149.5,220C 145.615,222.725 141.615,225.225 137.5,227.5C 137.798,224.664 137.131,224.164 135.5,226C 114.888,228.141 94.2213,229.807 73.5,231C 69.2768,231.188 65.2768,232.021 61.5,233.5C 45.8898,230.431 30.5564,226.431 15.5,221.5C 16.3482,219.591 16.6816,217.591 16.5,215.5C 18.5,215.5 20.5,215.5 22.5,215.5C 22.2471,213.173 22.9137,211.173 24.5,209.5C 43.5606,217.578 63.3939,222.245 84,223.5C 103.1,221.201 122.267,219.368 141.5,218C 137.325,217.009 133.325,215.842 129.5,214.5 Z"/></g>
<g><path style="opacity:0.66" fill="#196548" d="M 349.5,216.5 C 350.833,216.5 352.167,216.5 353.5,216.5C 353.816,224.752 353.482,232.919 352.5,241C 343.177,245.595 333.844,245.595 324.5,241C 322.004,239.669 320.004,237.836 318.5,235.5C 320.595,236.412 322.595,237.579 324.5,239C 332.721,241.389 340.721,240.889 348.5,237.5C 349.497,230.532 349.83,223.532 349.5,216.5 Z"/></g>
<g><path style="opacity:0.596" fill="#196649" d="M 593.5,189.5 C 594.5,189.5 595.5,189.5 596.5,189.5C 601.806,207.584 607.806,225.418 614.5,243C 614.333,243.5 614.167,244 614,244.5C 609.879,243.861 605.713,243.195 601.5,242.5C 601.137,241.817 600.804,241.15 600.5,240.5C 603.833,240.5 607.167,240.5 610.5,240.5C 605.031,223.426 599.364,206.426 593.5,189.5 Z"/></g>
<g><path style="opacity:0.627" fill="#1b6a4c" d="M 948.5,210.5 C 948.833,210.5 949.167,210.5 949.5,210.5C 950.5,210.5 951.5,210.5 952.5,210.5C 952.5,213.833 952.5,217.167 952.5,220.5C 946.5,220.5 940.5,220.5 934.5,220.5C 934.5,223.833 934.5,227.167 934.5,230.5C 933.167,230.5 931.833,230.5 930.5,230.5C 930.5,226.167 930.5,221.833 930.5,217.5C 936.5,217.5 942.5,217.5 948.5,217.5C 948.5,215.167 948.5,212.833 948.5,210.5 Z"/></g>
<g><path style="opacity:0.51" fill="#196347" d="M 408.5,211.5 C 409.833,211.5 411.167,211.5 412.5,211.5C 412.5,215.167 412.5,218.833 412.5,222.5C 407.833,222.5 403.167,222.5 398.5,222.5C 398.5,224.5 398.5,226.5 398.5,228.5C 397.292,229.234 395.959,229.567 394.5,229.5C 394.5,226.167 394.5,222.833 394.5,219.5C 399.167,219.5 403.833,219.5 408.5,219.5C 408.5,216.833 408.5,214.167 408.5,211.5 Z"/></g>
<g><path style="opacity:0.658" fill="#1d6d4f" d="M 756.5,223.5 C 755.5,223.5 754.5,223.5 753.5,223.5C 753.5,230.167 753.5,236.833 753.5,243.5C 749.5,243.5 745.5,243.5 741.5,243.5C 741.5,242.5 741.5,241.5 741.5,240.5C 741.833,240.5 742.167,240.5 742.5,240.5C 744.833,240.5 747.167,240.5 749.5,240.5C 749.5,233.5 749.5,226.5 749.5,219.5C 751.5,219.5 753.5,219.5 755.5,219.5C 755.433,220.959 755.766,222.292 756.5,223.5 Z"/></g>
<g><path style="opacity:1" fill="#008076" d="M 137.5,227.5 C 134.169,231 131.002,234.666 128,238.5C 125.924,241.893 124.758,245.56 124.5,249.5C 121.09,249.543 117.757,249.043 114.5,248C 96.6313,243.586 78.9646,238.753 61.5,233.5C 65.2768,232.021 69.2768,231.188 73.5,231C 94.2213,229.807 114.888,228.141 135.5,226C 137.131,224.164 137.798,224.664 137.5,227.5 Z"/></g>
<g><path style="opacity:1" fill="#008078" d="M 156.5,226.5 C 159.428,227.591 161.594,229.591 163,232.5C 167.189,238.537 169.356,245.204 169.5,252.5C 161.5,252.5 153.5,252.5 145.5,252.5C 146.428,242.647 150.095,233.98 156.5,226.5 Z"/></g>
<g><path style="opacity:0.657" fill="#196749" d="M 595.5,231.5 C 589.833,231.5 584.167,231.5 578.5,231.5C 578.233,235.531 577.233,239.364 575.5,243C 571.247,243.2 567.08,243.7 563,244.5C 562.421,243.072 562.588,241.738 563.5,240.5C 566.448,240.777 569.281,240.444 572,239.5C 573.463,235.577 574.63,231.577 575.5,227.5C 581.842,227.334 588.175,227.5 594.5,228C 595.337,229.011 595.67,230.178 595.5,231.5 Z"/></g>
<g><path style="opacity:0.679" fill="#186548" d="M 950.5,233.5 C 951.5,233.5 952.5,233.5 953.5,233.5C 953.5,236.833 953.5,240.167 953.5,243.5C 943.167,243.5 932.833,243.5 922.5,243.5C 922.5,242.5 922.5,241.5 922.5,240.5C 931.833,240.5 941.167,240.5 950.5,240.5C 950.5,238.167 950.5,235.833 950.5,233.5 Z"/></g>
<g><path style="opacity:0.569" fill="#186547" d="M 411.5,232.5 C 412.833,232.5 414.167,232.5 415.5,232.5C 415.5,236.167 415.5,239.833 415.5,243.5C 405.833,243.5 396.167,243.5 386.5,243.5C 386.5,242.5 386.5,241.5 386.5,240.5C 394.833,240.5 403.167,240.5 411.5,240.5C 411.5,237.833 411.5,235.167 411.5,232.5 Z"/></g>
<g><path style="opacity:0.567" fill="#196447" d="M 773.5,193.5 C 777.696,196.688 779.696,201.022 779.5,206.5C 779.211,213.747 775.877,219.081 769.5,222.5C 773.317,229.473 777.317,236.307 781.5,243C 781.167,243.5 780.833,244 780.5,244.5C 776.235,243.561 771.902,243.228 767.5,243.5C 767.5,242.5 767.5,241.5 767.5,240.5C 770.898,240.82 774.232,240.487 777.5,239.5C 773.699,232.537 769.699,225.703 765.5,219C 775.662,212.974 778.329,204.474 773.5,193.5 Z"/></g>
<g><path style="opacity:1" fill="#2f9f73" d="M 941.5,248.5 C 941.62,254.934 938.62,257.267 932.5,255.5C 929.862,254.758 928.529,252.925 928.5,250C 929.911,244.859 933.245,243.192 938.5,245C 940.426,245.422 941.426,246.589 941.5,248.5 Z"/></g>
<g><path style="opacity:0.67" fill="#196648" d="M 941.5,248.5 C 942.496,248.414 943.329,248.748 944,249.5C 945.955,252.438 945.788,255.271 943.5,258C 940.167,258.667 936.833,258.667 933.5,258C 932.748,257.329 932.414,256.496 932.5,255.5C 938.62,257.267 941.62,254.934 941.5,248.5 Z"/></g>
</svg>
